%TF.GenerationSoftware,KiCad,Pcbnew,9.0.7*%
%TF.CreationDate,2026-03-11T18:21:33+05:30*%
%TF.ProjectId,new,6e65772e-6b69-4636-9164-5f7063625858,rev?*%
%TF.SameCoordinates,Original*%
%TF.FileFunction,Copper,L2,Bot*%
%TF.FilePolarity,Positive*%
%FSLAX46Y46*%
G04 Gerber Fmt 4.6, Leading zero omitted, Abs format (unit mm)*
G04 Created by KiCad (PCBNEW 9.0.7) date 2026-03-11 18:21:33*
%MOMM*%
%LPD*%
G01*
G04 APERTURE LIST*
G04 Aperture macros list*
%AMRoundRect*
0 Rectangle with rounded corners*
0 $1 Rounding radius*
0 $2 $3 $4 $5 $6 $7 $8 $9 X,Y pos of 4 corners*
0 Add a 4 corners polygon primitive as box body*
4,1,4,$2,$3,$4,$5,$6,$7,$8,$9,$2,$3,0*
0 Add four circle primitives for the rounded corners*
1,1,$1+$1,$2,$3*
1,1,$1+$1,$4,$5*
1,1,$1+$1,$6,$7*
1,1,$1+$1,$8,$9*
0 Add four rect primitives between the rounded corners*
20,1,$1+$1,$2,$3,$4,$5,0*
20,1,$1+$1,$4,$5,$6,$7,0*
20,1,$1+$1,$6,$7,$8,$9,0*
20,1,$1+$1,$8,$9,$2,$3,0*%
G04 Aperture macros list end*
%TA.AperFunction,ComponentPad*%
%ADD10C,1.600000*%
%TD*%
%TA.AperFunction,ComponentPad*%
%ADD11O,1.600000X1.600000*%
%TD*%
%TA.AperFunction,ComponentPad*%
%ADD12O,1.320800X2.641600*%
%TD*%
%TA.AperFunction,ComponentPad*%
%ADD13RoundRect,0.250000X-0.550000X-0.550000X0.550000X-0.550000X0.550000X0.550000X-0.550000X0.550000X0*%
%TD*%
%TA.AperFunction,ComponentPad*%
%ADD14C,1.400000*%
%TD*%
%TA.AperFunction,ComponentPad*%
%ADD15RoundRect,0.249999X-0.850001X-0.850001X0.850001X-0.850001X0.850001X0.850001X-0.850001X0.850001X0*%
%TD*%
%TA.AperFunction,ComponentPad*%
%ADD16C,2.200000*%
%TD*%
%TA.AperFunction,ViaPad*%
%ADD17C,0.300000*%
%TD*%
%TA.AperFunction,Conductor*%
%ADD18C,0.200000*%
%TD*%
G04 APERTURE END LIST*
D10*
%TO.P,L1,1,1*%
%TO.N,Net-(D2-K)*%
X172785000Y-53840000D03*
D11*
%TO.P,L1,2,2*%
%TO.N,GND*%
X182785000Y-53840000D03*
%TD*%
D12*
%TO.P,U5,1*%
%TO.N,+24V*%
X165590000Y-59770000D03*
%TO.P,U5,2*%
%TO.N,GND*%
X168130000Y-59770000D03*
%TO.P,U5,3*%
X168130000Y-52150000D03*
%TO.P,U5,4*%
%TO.N,Net-(U4-P01{slash}ANI16{slash}TO00{slash}RXD1)*%
X165590000Y-52150000D03*
%TD*%
D13*
%TO.P,D1,1,K*%
%TO.N,Net-(D1-K)*%
X183435000Y-58190000D03*
D10*
%TO.P,D1,2,A*%
%TO.N,GND*%
X191055000Y-58190000D03*
%TD*%
D14*
%TO.P,R1,1*%
%TO.N,Net-(U1-In-)*%
X155130000Y-46520000D03*
%TO.P,R1,2*%
%TO.N,0*%
X157030000Y-46520000D03*
%TD*%
D10*
%TO.P,C2,1*%
%TO.N,+24V*%
X172785000Y-58490000D03*
%TO.P,C2,2*%
%TO.N,GND*%
X180285000Y-58490000D03*
%TD*%
D15*
%TO.P,D2,1,K*%
%TO.N,Net-(D2-K)*%
X184170635Y-62275635D03*
D16*
%TO.P,D2,2,A*%
%TO.N,GND*%
X187980635Y-62275635D03*
%TD*%
D14*
%TO.P,R4,1*%
%TO.N,Net-(U1-In+)*%
X146150000Y-51500000D03*
%TO.P,R4,2*%
%TO.N,AC*%
X148050000Y-51500000D03*
%TD*%
%TO.P,R5,1*%
%TO.N,GND*%
X159730000Y-51500000D03*
%TO.P,R5,2*%
%TO.N,Net-(U4-P01{slash}ANI16{slash}TO00{slash}RXD1)*%
X161630000Y-51500000D03*
%TD*%
D10*
%TO.P,C4,1*%
%TO.N,GND*%
X172785000Y-66790000D03*
%TO.P,C4,2*%
X180285000Y-66790000D03*
%TD*%
%TO.P,C3,1*%
%TO.N,Net-(D1-K)*%
X172785000Y-62640000D03*
%TO.P,C3,2*%
%TO.N,Net-(D2-K)*%
X180285000Y-62640000D03*
%TD*%
D14*
%TO.P,R2,1*%
%TO.N,Net-(U1-In+)*%
X144420000Y-56690000D03*
%TO.P,R2,2*%
%TO.N,+2.5V*%
X146320000Y-56690000D03*
%TD*%
%TO.P,R8,1*%
%TO.N,Net-(U2-Vfb)*%
X183435000Y-69310000D03*
%TO.P,R8,2*%
%TO.N,GND*%
X185335000Y-69310000D03*
%TD*%
D10*
%TO.P,C1,1*%
%TO.N,GND*%
X162270000Y-66870000D03*
%TO.P,C1,2*%
X169770000Y-66870000D03*
%TD*%
D14*
%TO.P,R7,1*%
%TO.N,GND*%
X183435000Y-66160000D03*
%TO.P,R7,2*%
%TO.N,Net-(U2-Vfb)*%
X185335000Y-66160000D03*
%TD*%
%TO.P,R3,1*%
%TO.N,Net-(U1-OUT)*%
X155240000Y-51550000D03*
%TO.P,R3,2*%
%TO.N,Net-(U1-In-)*%
X157140000Y-51550000D03*
%TD*%
%TO.P,R6,1*%
%TO.N,GND*%
X150820000Y-69920000D03*
%TO.P,R6,2*%
X152720000Y-69920000D03*
%TD*%
D17*
%TO.N,GND*%
X155514243Y-69387157D03*
X150360000Y-52055600D03*
X156133555Y-70765600D03*
X186760000Y-69320000D03*
%TD*%
D18*
%TO.N,+24V*%
X172785000Y-58490000D02*
X171985001Y-57690001D01*
X171985001Y-57690001D02*
X167669999Y-57690001D01*
X167669999Y-57690001D02*
X165590000Y-59770000D01*
%TO.N,GND*%
X158031400Y-66870000D02*
X162270000Y-66870000D01*
X152076200Y-53771800D02*
X157458200Y-53771800D01*
X157458200Y-53771800D02*
X159730000Y-51500000D01*
X160029155Y-66870000D02*
X162270000Y-66870000D01*
X185335000Y-69310000D02*
X185335000Y-68060000D01*
X187980635Y-68099365D02*
X187980635Y-62275635D01*
X150360000Y-52055600D02*
X152076200Y-53771800D01*
X186760000Y-69320000D02*
X187980635Y-68099365D01*
X185335000Y-68060000D02*
X183435000Y-66160000D01*
X155514243Y-69387157D02*
X158031400Y-66870000D01*
X156133555Y-70765600D02*
X160029155Y-66870000D01*
%TO.N,Net-(D2-K)*%
X172785000Y-55140000D02*
X180285000Y-62640000D01*
X172785000Y-53840000D02*
X172785000Y-55140000D01*
%TO.N,Net-(D1-K)*%
X173886000Y-63741000D02*
X172785000Y-62640000D01*
X180741050Y-63741000D02*
X173886000Y-63741000D01*
X183435000Y-58190000D02*
X181386000Y-60239000D01*
X181386000Y-63096050D02*
X180741050Y-63741000D01*
X181386000Y-60239000D02*
X181386000Y-63096050D01*
%TD*%
%TA.AperFunction,Conductor*%
%TO.N,GND*%
G36*
X196568691Y-44229407D02*
G01*
X196604655Y-44278907D01*
X196609500Y-44309500D01*
X196609500Y-72220500D01*
X196590593Y-72278691D01*
X196541093Y-72314655D01*
X196510500Y-72319500D01*
X139539500Y-72319500D01*
X139481309Y-72300593D01*
X139445345Y-72251093D01*
X139440500Y-72220500D01*
X139440500Y-70927883D01*
X150165670Y-70927883D01*
X150191059Y-70946330D01*
X150191063Y-70946332D01*
X150359364Y-71032085D01*
X150539003Y-71090453D01*
X150725555Y-71120000D01*
X150914445Y-71120000D01*
X151100996Y-71090453D01*
X151280635Y-71032085D01*
X151448939Y-70946329D01*
X151474328Y-70927883D01*
X152065670Y-70927883D01*
X152091059Y-70946330D01*
X152091063Y-70946332D01*
X152259364Y-71032085D01*
X152439003Y-71090453D01*
X152625555Y-71120000D01*
X152814445Y-71120000D01*
X153000996Y-71090453D01*
X153180635Y-71032085D01*
X153348939Y-70946329D01*
X153374328Y-70927883D01*
X152719999Y-70273554D01*
X152065670Y-70927883D01*
X151474328Y-70927883D01*
X150819999Y-70273554D01*
X150165670Y-70927883D01*
X139440500Y-70927883D01*
X139440500Y-69825554D01*
X149620000Y-69825554D01*
X149620000Y-70014445D01*
X149649546Y-70200996D01*
X149707914Y-70380635D01*
X149793666Y-70548934D01*
X149812115Y-70574328D01*
X150466444Y-69919999D01*
X150420367Y-69873922D01*
X150470000Y-69873922D01*
X150470000Y-69966078D01*
X150493852Y-70055095D01*
X150539930Y-70134905D01*
X150605095Y-70200070D01*
X150684905Y-70246148D01*
X150773922Y-70270000D01*
X150866078Y-70270000D01*
X150955095Y-70246148D01*
X151034905Y-70200070D01*
X151100070Y-70134905D01*
X151146148Y-70055095D01*
X151170000Y-69966078D01*
X151170000Y-69919999D01*
X151173554Y-69919999D01*
X151769999Y-70516445D01*
X152366445Y-69919999D01*
X152320368Y-69873922D01*
X152370000Y-69873922D01*
X152370000Y-69966078D01*
X152393852Y-70055095D01*
X152439930Y-70134905D01*
X152505095Y-70200070D01*
X152584905Y-70246148D01*
X152673922Y-70270000D01*
X152766078Y-70270000D01*
X152855095Y-70246148D01*
X152934905Y-70200070D01*
X153000070Y-70134905D01*
X153046148Y-70055095D01*
X153070000Y-69966078D01*
X153070000Y-69919999D01*
X153073554Y-69919999D01*
X153727883Y-70574328D01*
X153746329Y-70548939D01*
X153832085Y-70380635D01*
X153852474Y-70317883D01*
X184680670Y-70317883D01*
X184706059Y-70336330D01*
X184706063Y-70336332D01*
X184874364Y-70422085D01*
X185054003Y-70480453D01*
X185240555Y-70510000D01*
X185429445Y-70510000D01*
X185615996Y-70480453D01*
X185795635Y-70422085D01*
X185963939Y-70336329D01*
X185989328Y-70317883D01*
X185334999Y-69663554D01*
X184680670Y-70317883D01*
X153852474Y-70317883D01*
X153890453Y-70200996D01*
X153920000Y-70014445D01*
X153920000Y-69825554D01*
X153890453Y-69639003D01*
X153832085Y-69459364D01*
X153746332Y-69291063D01*
X153746329Y-69291059D01*
X153734397Y-69274635D01*
X153727883Y-69265670D01*
X153073554Y-69919999D01*
X153070000Y-69919999D01*
X153070000Y-69873922D01*
X153046148Y-69784905D01*
X153000070Y-69705095D01*
X152934905Y-69639930D01*
X152855095Y-69593852D01*
X152766078Y-69570000D01*
X152673922Y-69570000D01*
X152584905Y-69593852D01*
X152505095Y-69639930D01*
X152439930Y-69705095D01*
X152393852Y-69784905D01*
X152370000Y-69873922D01*
X152320368Y-69873922D01*
X151769999Y-69323554D01*
X151173554Y-69919999D01*
X151170000Y-69919999D01*
X151170000Y-69873922D01*
X151146148Y-69784905D01*
X151100070Y-69705095D01*
X151034905Y-69639930D01*
X150955095Y-69593852D01*
X150866078Y-69570000D01*
X150773922Y-69570000D01*
X150684905Y-69593852D01*
X150605095Y-69639930D01*
X150539930Y-69705095D01*
X150493852Y-69784905D01*
X150470000Y-69873922D01*
X150420367Y-69873922D01*
X149812115Y-69265670D01*
X149793668Y-69291063D01*
X149707914Y-69459364D01*
X149649546Y-69639003D01*
X149620000Y-69825554D01*
X139440500Y-69825554D01*
X139440500Y-68912115D01*
X150165670Y-68912115D01*
X150819999Y-69566444D01*
X151474328Y-68912115D01*
X152065670Y-68912115D01*
X152719999Y-69566444D01*
X153065137Y-69221306D01*
X182534500Y-69221306D01*
X182534500Y-69398693D01*
X182557570Y-69514674D01*
X182567868Y-69566444D01*
X182569106Y-69572665D01*
X182569106Y-69572667D01*
X182636985Y-69736544D01*
X182636985Y-69736545D01*
X182735189Y-69883516D01*
X182735536Y-69884035D01*
X182860965Y-70009464D01*
X183008453Y-70108013D01*
X183172334Y-70175894D01*
X183346309Y-70210500D01*
X183346310Y-70210500D01*
X183523690Y-70210500D01*
X183523691Y-70210500D01*
X183697666Y-70175894D01*
X183861547Y-70108013D01*
X184009035Y-70009464D01*
X184134464Y-69884035D01*
X184134465Y-69884034D01*
X184134983Y-69883516D01*
X184189500Y-69855738D01*
X184249932Y-69865309D01*
X184293196Y-69908573D01*
X184308664Y-69938931D01*
X184327115Y-69964328D01*
X184981444Y-69309999D01*
X184935367Y-69263922D01*
X184985000Y-69263922D01*
X184985000Y-69356078D01*
X185008852Y-69445095D01*
X185054930Y-69524905D01*
X185120095Y-69590070D01*
X185199905Y-69636148D01*
X185288922Y-69660000D01*
X185381078Y-69660000D01*
X185470095Y-69636148D01*
X185549905Y-69590070D01*
X185615070Y-69524905D01*
X185661148Y-69445095D01*
X185685000Y-69356078D01*
X185685000Y-69309999D01*
X185688554Y-69309999D01*
X186342883Y-69964328D01*
X186361329Y-69938939D01*
X186447085Y-69770635D01*
X186505453Y-69590996D01*
X186535000Y-69404445D01*
X186535000Y-69215554D01*
X186505453Y-69029003D01*
X186447085Y-68849364D01*
X186361332Y-68681063D01*
X186361330Y-68681059D01*
X186342883Y-68655670D01*
X185688554Y-69309999D01*
X185685000Y-69309999D01*
X185685000Y-69263922D01*
X185661148Y-69174905D01*
X185615070Y-69095095D01*
X185549905Y-69029930D01*
X185470095Y-68983852D01*
X185381078Y-68960000D01*
X185288922Y-68960000D01*
X185199905Y-68983852D01*
X185120095Y-69029930D01*
X185054930Y-69095095D01*
X185008852Y-69174905D01*
X184985000Y-69263922D01*
X184935367Y-69263922D01*
X184327115Y-68655670D01*
X184308666Y-68681065D01*
X184293195Y-68711428D01*
X184249929Y-68754691D01*
X184189497Y-68764261D01*
X184134983Y-68736484D01*
X184009034Y-68610535D01*
X183861544Y-68511985D01*
X183697666Y-68444106D01*
X183661665Y-68436945D01*
X183523693Y-68409500D01*
X183523691Y-68409500D01*
X183346309Y-68409500D01*
X183346306Y-68409500D01*
X183172334Y-68444106D01*
X183172332Y-68444106D01*
X183008455Y-68511985D01*
X183008454Y-68511985D01*
X182860965Y-68610535D01*
X182735535Y-68735965D01*
X182636985Y-68883454D01*
X182636985Y-68883455D01*
X182569106Y-69047332D01*
X182569106Y-69047334D01*
X182534500Y-69221306D01*
X153065137Y-69221306D01*
X153374328Y-68912115D01*
X153348934Y-68893666D01*
X153180635Y-68807914D01*
X153000996Y-68749546D01*
X152814445Y-68720000D01*
X152625555Y-68720000D01*
X152439003Y-68749546D01*
X152259364Y-68807914D01*
X152091063Y-68893668D01*
X152065670Y-68912115D01*
X151474328Y-68912115D01*
X151448934Y-68893666D01*
X151280635Y-68807914D01*
X151100996Y-68749546D01*
X150914445Y-68720000D01*
X150725555Y-68720000D01*
X150539003Y-68749546D01*
X150359364Y-68807914D01*
X150191063Y-68893668D01*
X150165670Y-68912115D01*
X139440500Y-68912115D01*
X139440500Y-68302115D01*
X184680670Y-68302115D01*
X185334999Y-68956444D01*
X185989328Y-68302115D01*
X185963934Y-68283666D01*
X185795635Y-68197914D01*
X185615996Y-68139546D01*
X185429445Y-68110000D01*
X185240555Y-68110000D01*
X185054003Y-68139546D01*
X184874364Y-68197914D01*
X184706063Y-68283668D01*
X184680670Y-68302115D01*
X139440500Y-68302115D01*
X139440500Y-66767684D01*
X160970000Y-66767684D01*
X160970000Y-66972315D01*
X161002008Y-67174412D01*
X161065243Y-67369027D01*
X161158139Y-67551348D01*
X161158143Y-67551353D01*
X161190523Y-67595920D01*
X161190524Y-67595920D01*
X161870000Y-66916444D01*
X161870000Y-66922661D01*
X161897259Y-67024394D01*
X161949920Y-67115606D01*
X162024394Y-67190080D01*
X162115606Y-67242741D01*
X162217339Y-67270000D01*
X162223553Y-67270000D01*
X161544078Y-67949475D01*
X161588647Y-67981858D01*
X161770972Y-68074756D01*
X161965587Y-68137991D01*
X162167685Y-68170000D01*
X162372315Y-68170000D01*
X162574412Y-68137991D01*
X162769027Y-68074756D01*
X162951342Y-67981863D01*
X162951350Y-67981858D01*
X162995920Y-67949475D01*
X162316445Y-67270000D01*
X162322661Y-67270000D01*
X162424394Y-67242741D01*
X162515606Y-67190080D01*
X162590080Y-67115606D01*
X162642741Y-67024394D01*
X162670000Y-66922661D01*
X162670000Y-66916445D01*
X163349475Y-67595920D01*
X163381858Y-67551350D01*
X163381863Y-67551342D01*
X163474756Y-67369027D01*
X163537991Y-67174412D01*
X163570000Y-66972315D01*
X163570000Y-66767684D01*
X168470000Y-66767684D01*
X168470000Y-66972315D01*
X168502008Y-67174412D01*
X168565243Y-67369027D01*
X168658139Y-67551348D01*
X168658143Y-67551353D01*
X168690523Y-67595920D01*
X168690524Y-67595920D01*
X169370000Y-66916444D01*
X169370000Y-66922661D01*
X169397259Y-67024394D01*
X169449920Y-67115606D01*
X169524394Y-67190080D01*
X169615606Y-67242741D01*
X169717339Y-67270000D01*
X169723553Y-67270000D01*
X169044078Y-67949475D01*
X169088647Y-67981858D01*
X169270972Y-68074756D01*
X169465587Y-68137991D01*
X169667685Y-68170000D01*
X169872315Y-68170000D01*
X170074412Y-68137991D01*
X170269027Y-68074756D01*
X170451342Y-67981863D01*
X170451350Y-67981858D01*
X170495920Y-67949475D01*
X169816445Y-67270000D01*
X169822661Y-67270000D01*
X169924394Y-67242741D01*
X170015606Y-67190080D01*
X170090080Y-67115606D01*
X170142741Y-67024394D01*
X170170000Y-66922661D01*
X170170000Y-66916445D01*
X170849475Y-67595920D01*
X170881858Y-67551350D01*
X170881863Y-67551342D01*
X170974756Y-67369027D01*
X171037991Y-67174412D01*
X171070000Y-66972315D01*
X171070000Y-66767683D01*
X171059167Y-66699284D01*
X171057330Y-66687684D01*
X171485000Y-66687684D01*
X171485000Y-66892315D01*
X171517008Y-67094412D01*
X171580243Y-67289027D01*
X171673139Y-67471348D01*
X171673143Y-67471353D01*
X171705523Y-67515920D01*
X171705524Y-67515920D01*
X172385000Y-66836444D01*
X172385000Y-66842661D01*
X172412259Y-66944394D01*
X172464920Y-67035606D01*
X172539394Y-67110080D01*
X172630606Y-67162741D01*
X172732339Y-67190000D01*
X172738553Y-67190000D01*
X172059078Y-67869475D01*
X172103647Y-67901858D01*
X172285972Y-67994756D01*
X172480587Y-68057991D01*
X172682685Y-68090000D01*
X172887315Y-68090000D01*
X173089412Y-68057991D01*
X173284027Y-67994756D01*
X173466342Y-67901863D01*
X173466350Y-67901858D01*
X173510920Y-67869475D01*
X172831445Y-67190000D01*
X172837661Y-67190000D01*
X172939394Y-67162741D01*
X173030606Y-67110080D01*
X173105080Y-67035606D01*
X173157741Y-66944394D01*
X173185000Y-66842661D01*
X173185000Y-66836445D01*
X173864475Y-67515920D01*
X173896858Y-67471350D01*
X173896863Y-67471342D01*
X173989756Y-67289027D01*
X174052991Y-67094412D01*
X174085000Y-66892315D01*
X174085000Y-66687684D01*
X178985000Y-66687684D01*
X178985000Y-66892315D01*
X179017008Y-67094412D01*
X179080243Y-67289027D01*
X179173139Y-67471348D01*
X179173143Y-67471353D01*
X179205523Y-67515920D01*
X179205524Y-67515920D01*
X179885000Y-66836444D01*
X179885000Y-66842661D01*
X179912259Y-66944394D01*
X179964920Y-67035606D01*
X180039394Y-67110080D01*
X180130606Y-67162741D01*
X180232339Y-67190000D01*
X180238553Y-67190000D01*
X179559078Y-67869475D01*
X179603647Y-67901858D01*
X179785972Y-67994756D01*
X179980587Y-68057991D01*
X180182685Y-68090000D01*
X180387315Y-68090000D01*
X180589412Y-68057991D01*
X180784027Y-67994756D01*
X180966342Y-67901863D01*
X180966350Y-67901858D01*
X181010920Y-67869475D01*
X180331445Y-67190000D01*
X180337661Y-67190000D01*
X180439394Y-67162741D01*
X180530606Y-67110080D01*
X180605080Y-67035606D01*
X180657741Y-66944394D01*
X180685000Y-66842661D01*
X180685000Y-66836445D01*
X181364475Y-67515920D01*
X181396858Y-67471350D01*
X181396863Y-67471342D01*
X181489756Y-67289027D01*
X181529119Y-67167883D01*
X182780670Y-67167883D01*
X182806059Y-67186330D01*
X182806063Y-67186332D01*
X182974364Y-67272085D01*
X183154003Y-67330453D01*
X183340555Y-67360000D01*
X183529445Y-67360000D01*
X183715996Y-67330453D01*
X183895635Y-67272085D01*
X184063939Y-67186329D01*
X184089328Y-67167883D01*
X183434999Y-66513554D01*
X182780670Y-67167883D01*
X181529119Y-67167883D01*
X181551319Y-67099559D01*
X181551320Y-67099556D01*
X181552990Y-67094418D01*
X181585000Y-66892315D01*
X181585000Y-66687684D01*
X181552991Y-66485587D01*
X181489756Y-66290972D01*
X181396859Y-66108649D01*
X181365547Y-66065554D01*
X182235000Y-66065554D01*
X182235000Y-66254445D01*
X182264546Y-66440996D01*
X182322914Y-66620635D01*
X182408666Y-66788934D01*
X182427115Y-66814328D01*
X183081444Y-66159999D01*
X183035367Y-66113922D01*
X183085000Y-66113922D01*
X183085000Y-66206078D01*
X183108852Y-66295095D01*
X183154930Y-66374905D01*
X183220095Y-66440070D01*
X183299905Y-66486148D01*
X183388922Y-66510000D01*
X183481078Y-66510000D01*
X183570095Y-66486148D01*
X183649905Y-66440070D01*
X183715070Y-66374905D01*
X183761148Y-66295095D01*
X183785000Y-66206078D01*
X183785000Y-66159999D01*
X183788554Y-66159999D01*
X184442883Y-66814328D01*
X184461331Y-66788937D01*
X184476800Y-66758576D01*
X184520063Y-66715310D01*
X184580495Y-66705736D01*
X184635013Y-66733512D01*
X184635535Y-66734034D01*
X184635536Y-66734035D01*
X184760965Y-66859464D01*
X184908453Y-66958013D01*
X185072334Y-67025894D01*
X185246309Y-67060500D01*
X185246310Y-67060500D01*
X185423690Y-67060500D01*
X185423691Y-67060500D01*
X185597666Y-67025894D01*
X185761547Y-66958013D01*
X185909035Y-66859464D01*
X186034464Y-66734035D01*
X186133013Y-66586547D01*
X186200894Y-66422666D01*
X186235500Y-66248691D01*
X186235500Y-66071309D01*
X186200894Y-65897334D01*
X186133014Y-65733455D01*
X186133014Y-65733454D01*
X186034464Y-65585965D01*
X185909034Y-65460535D01*
X185761544Y-65361985D01*
X185597666Y-65294106D01*
X185423693Y-65259500D01*
X185423691Y-65259500D01*
X185246309Y-65259500D01*
X185246306Y-65259500D01*
X185072334Y-65294106D01*
X185072332Y-65294106D01*
X184908455Y-65361985D01*
X184908454Y-65361985D01*
X184760965Y-65460535D01*
X184635016Y-65586485D01*
X184580499Y-65614262D01*
X184520067Y-65604691D01*
X184476802Y-65561426D01*
X184476802Y-65561425D01*
X184461334Y-65531067D01*
X184461330Y-65531059D01*
X184442883Y-65505670D01*
X183788554Y-66159999D01*
X183785000Y-66159999D01*
X183785000Y-66113922D01*
X183761148Y-66024905D01*
X183715070Y-65945095D01*
X183649905Y-65879930D01*
X183570095Y-65833852D01*
X183481078Y-65810000D01*
X183388922Y-65810000D01*
X183299905Y-65833852D01*
X183220095Y-65879930D01*
X183154930Y-65945095D01*
X183108852Y-66024905D01*
X183085000Y-66113922D01*
X183035367Y-66113922D01*
X182427115Y-65505670D01*
X182408668Y-65531063D01*
X182322914Y-65699364D01*
X182264546Y-65879003D01*
X182235000Y-66065554D01*
X181365547Y-66065554D01*
X181364475Y-66064078D01*
X180685000Y-66743553D01*
X180685000Y-66737339D01*
X180657741Y-66635606D01*
X180605080Y-66544394D01*
X180530606Y-66469920D01*
X180439394Y-66417259D01*
X180337661Y-66390000D01*
X180331445Y-66390000D01*
X181010920Y-65710524D01*
X181010920Y-65710523D01*
X180966353Y-65678143D01*
X180966348Y-65678139D01*
X180784027Y-65585243D01*
X180589412Y-65522008D01*
X180387315Y-65490000D01*
X180182685Y-65490000D01*
X179980587Y-65522008D01*
X179785972Y-65585243D01*
X179603651Y-65678139D01*
X179603647Y-65678141D01*
X179559078Y-65710523D01*
X180238555Y-66390000D01*
X180232339Y-66390000D01*
X180130606Y-66417259D01*
X180039394Y-66469920D01*
X179964920Y-66544394D01*
X179912259Y-66635606D01*
X179885000Y-66737339D01*
X179885000Y-66743555D01*
X179205523Y-66064078D01*
X179173141Y-66108647D01*
X179173139Y-66108651D01*
X179080243Y-66290972D01*
X179017008Y-66485587D01*
X178985000Y-66687684D01*
X174085000Y-66687684D01*
X174052991Y-66485587D01*
X173989756Y-66290972D01*
X173896858Y-66108647D01*
X173864475Y-66064078D01*
X173185000Y-66743553D01*
X173185000Y-66737339D01*
X173157741Y-66635606D01*
X173105080Y-66544394D01*
X173030606Y-66469920D01*
X172939394Y-66417259D01*
X172837661Y-66390000D01*
X172831445Y-66390000D01*
X173510920Y-65710524D01*
X173510920Y-65710523D01*
X173466353Y-65678143D01*
X173466348Y-65678139D01*
X173284027Y-65585243D01*
X173089412Y-65522008D01*
X172887315Y-65490000D01*
X172682685Y-65490000D01*
X172480587Y-65522008D01*
X172285972Y-65585243D01*
X172103651Y-65678139D01*
X172103647Y-65678141D01*
X172059078Y-65710523D01*
X172738555Y-66390000D01*
X172732339Y-66390000D01*
X172630606Y-66417259D01*
X172539394Y-66469920D01*
X172464920Y-66544394D01*
X172412259Y-66635606D01*
X172385000Y-66737339D01*
X172385000Y-66743555D01*
X171705523Y-66064078D01*
X171673141Y-66108647D01*
X171673139Y-66108651D01*
X171580243Y-66290972D01*
X171517008Y-66485587D01*
X171485000Y-66687684D01*
X171057330Y-66687684D01*
X171037991Y-66565587D01*
X170974756Y-66370972D01*
X170881858Y-66188647D01*
X170849475Y-66144078D01*
X170170000Y-66823553D01*
X170170000Y-66817339D01*
X170142741Y-66715606D01*
X170090080Y-66624394D01*
X170015606Y-66549920D01*
X169924394Y-66497259D01*
X169822661Y-66470000D01*
X169816445Y-66470000D01*
X170495921Y-65790523D01*
X170451353Y-65758143D01*
X170451348Y-65758139D01*
X170269027Y-65665243D01*
X170074412Y-65602008D01*
X169872315Y-65570000D01*
X169667685Y-65570000D01*
X169465587Y-65602008D01*
X169270972Y-65665243D01*
X169088651Y-65758139D01*
X169088647Y-65758141D01*
X169044078Y-65790523D01*
X169723555Y-66470000D01*
X169717339Y-66470000D01*
X169615606Y-66497259D01*
X169524394Y-66549920D01*
X169449920Y-66624394D01*
X169397259Y-66715606D01*
X169370000Y-66817339D01*
X169370000Y-66823555D01*
X168690523Y-66144078D01*
X168658141Y-66188647D01*
X168658139Y-66188651D01*
X168565243Y-66370972D01*
X168502008Y-66565587D01*
X168470000Y-66767684D01*
X163570000Y-66767684D01*
X163537991Y-66565587D01*
X163474756Y-66370972D01*
X163381858Y-66188647D01*
X163349475Y-66144078D01*
X162670000Y-66823553D01*
X162670000Y-66817339D01*
X162642741Y-66715606D01*
X162590080Y-66624394D01*
X162515606Y-66549920D01*
X162424394Y-66497259D01*
X162322661Y-66470000D01*
X162316445Y-66470000D01*
X162995920Y-65790524D01*
X162995920Y-65790523D01*
X162951353Y-65758143D01*
X162951348Y-65758139D01*
X162769027Y-65665243D01*
X162574412Y-65602008D01*
X162372315Y-65570000D01*
X162167685Y-65570000D01*
X161965587Y-65602008D01*
X161770972Y-65665243D01*
X161588651Y-65758139D01*
X161588647Y-65758141D01*
X161544078Y-65790523D01*
X162223555Y-66470000D01*
X162217339Y-66470000D01*
X162115606Y-66497259D01*
X162024394Y-66549920D01*
X161949920Y-66624394D01*
X161897259Y-66715606D01*
X161870000Y-66817339D01*
X161870000Y-66823555D01*
X161190523Y-66144078D01*
X161158141Y-66188647D01*
X161158139Y-66188651D01*
X161065243Y-66370972D01*
X161002008Y-66565587D01*
X160970000Y-66767684D01*
X139440500Y-66767684D01*
X139440500Y-65152115D01*
X182780670Y-65152115D01*
X183434999Y-65806444D01*
X184089328Y-65152115D01*
X184063934Y-65133666D01*
X183895635Y-65047914D01*
X183715996Y-64989546D01*
X183529445Y-64960000D01*
X183340555Y-64960000D01*
X183154003Y-64989546D01*
X182974364Y-65047914D01*
X182806063Y-65133668D01*
X182780670Y-65152115D01*
X139440500Y-65152115D01*
X139440500Y-59024806D01*
X164729100Y-59024806D01*
X164729100Y-60515193D01*
X164762182Y-60681513D01*
X164827079Y-60838187D01*
X164827083Y-60838196D01*
X164905556Y-60955638D01*
X164921295Y-60979192D01*
X165041208Y-61099105D01*
X165087995Y-61130367D01*
X165182203Y-61193316D01*
X165182209Y-61193318D01*
X165182211Y-61193320D01*
X165338885Y-61258217D01*
X165505209Y-61291300D01*
X165505211Y-61291300D01*
X165674789Y-61291300D01*
X165674791Y-61291300D01*
X165841115Y-61258217D01*
X165997789Y-61193320D01*
X165997792Y-61193317D01*
X165997796Y-61193316D01*
X166045217Y-61161629D01*
X166138792Y-61099105D01*
X166258705Y-60979192D01*
X166327763Y-60875839D01*
X166352916Y-60838196D01*
X166352917Y-60838192D01*
X166352920Y-60838189D01*
X166417817Y-60681515D01*
X166450900Y-60515191D01*
X166450900Y-59375078D01*
X166469807Y-59316887D01*
X166479890Y-59305080D01*
X166800598Y-58984372D01*
X166855113Y-58956597D01*
X166915545Y-58966168D01*
X166958810Y-59009433D01*
X166969600Y-59054378D01*
X166969600Y-59519999D01*
X166969601Y-59520000D01*
X167805263Y-59520000D01*
X167804799Y-59520464D01*
X167751295Y-59613135D01*
X167723600Y-59716496D01*
X167723600Y-59823504D01*
X167751295Y-59926865D01*
X167804799Y-60019536D01*
X167805263Y-60020000D01*
X166969601Y-60020000D01*
X166969600Y-60020001D01*
X166969600Y-60521728D01*
X166998171Y-60702123D01*
X167054615Y-60875839D01*
X167137535Y-61038579D01*
X167244896Y-61186348D01*
X167374051Y-61315503D01*
X167521820Y-61422864D01*
X167684560Y-61505784D01*
X167858278Y-61562228D01*
X167858274Y-61562228D01*
X167879999Y-61565668D01*
X167880000Y-61565667D01*
X167880000Y-60094737D01*
X167880464Y-60095201D01*
X167973135Y-60148705D01*
X168076496Y-60176400D01*
X168183504Y-60176400D01*
X168286865Y-60148705D01*
X168379536Y-60095201D01*
X168380000Y-60094737D01*
X168380000Y-61565668D01*
X168401723Y-61562228D01*
X168575439Y-61505784D01*
X168738179Y-61422864D01*
X168885948Y-61315503D01*
X169015103Y-61186348D01*
X169122464Y-61038579D01*
X169205384Y-60875839D01*
X169261828Y-60702123D01*
X169290400Y-60521728D01*
X169290400Y-60020001D01*
X169290399Y-60020000D01*
X168454737Y-60020000D01*
X168455201Y-60019536D01*
X168508705Y-59926865D01*
X168536400Y-59823504D01*
X168536400Y-59716496D01*
X168508705Y-59613135D01*
X168455201Y-59520464D01*
X168454737Y-59520000D01*
X169290399Y-59520000D01*
X169290400Y-59519999D01*
X169290400Y-59018271D01*
X169261828Y-58837876D01*
X169205384Y-58664160D01*
X169122464Y-58501420D01*
X169015103Y-58353651D01*
X168885948Y-58224496D01*
X168810382Y-58169594D01*
X168774418Y-58120094D01*
X168774418Y-58058908D01*
X168810382Y-58009408D01*
X168868573Y-57990501D01*
X171760802Y-57990501D01*
X171818993Y-58009408D01*
X171854957Y-58058908D01*
X171854957Y-58120094D01*
X171852266Y-58127386D01*
X171822949Y-58198163D01*
X171822949Y-58198165D01*
X171784500Y-58391456D01*
X171784500Y-58588543D01*
X171795610Y-58644394D01*
X171819705Y-58765529D01*
X171822949Y-58781834D01*
X171822949Y-58781836D01*
X171898367Y-58963913D01*
X171898368Y-58963914D01*
X172007861Y-59127782D01*
X172147218Y-59267139D01*
X172311086Y-59376632D01*
X172493165Y-59452051D01*
X172686459Y-59490500D01*
X172686460Y-59490500D01*
X172883540Y-59490500D01*
X172883541Y-59490500D01*
X173076835Y-59452051D01*
X173258914Y-59376632D01*
X173422782Y-59267139D01*
X173562139Y-59127782D01*
X173671632Y-58963914D01*
X173747051Y-58781835D01*
X173785500Y-58588541D01*
X173785500Y-58391459D01*
X173747051Y-58198165D01*
X173671632Y-58016086D01*
X173562139Y-57852218D01*
X173422782Y-57712861D01*
X173258914Y-57603368D01*
X173258915Y-57603368D01*
X173258913Y-57603367D01*
X173076835Y-57527949D01*
X172883543Y-57489500D01*
X172883541Y-57489500D01*
X172686459Y-57489500D01*
X172686456Y-57489500D01*
X172493168Y-57527948D01*
X172493166Y-57527948D01*
X172493165Y-57527949D01*
X172425699Y-57555894D01*
X172380864Y-57574465D01*
X172319867Y-57579264D01*
X172272976Y-57553004D01*
X172169511Y-57449540D01*
X172100993Y-57409981D01*
X172100989Y-57409979D01*
X172024565Y-57389501D01*
X172024563Y-57389501D01*
X167709561Y-57389501D01*
X167630437Y-57389501D01*
X167583660Y-57402034D01*
X167554006Y-57409980D01*
X167485492Y-57449537D01*
X167485487Y-57449541D01*
X166386465Y-58548561D01*
X166331949Y-58576338D01*
X166271517Y-58566767D01*
X166246459Y-58548561D01*
X166138793Y-58440896D01*
X166138790Y-58440894D01*
X166115505Y-58425335D01*
X165997796Y-58346683D01*
X165997787Y-58346679D01*
X165841113Y-58281782D01*
X165674793Y-58248700D01*
X165674791Y-58248700D01*
X165505209Y-58248700D01*
X165505206Y-58248700D01*
X165338886Y-58281782D01*
X165182212Y-58346679D01*
X165182203Y-58346683D01*
X165041209Y-58440894D01*
X164921294Y-58560809D01*
X164827083Y-58701803D01*
X164827079Y-58701812D01*
X164762182Y-58858486D01*
X164729100Y-59024806D01*
X139440500Y-59024806D01*
X139440500Y-56601306D01*
X143519500Y-56601306D01*
X143519500Y-56778693D01*
X143554106Y-56952665D01*
X143554106Y-56952667D01*
X143621985Y-57116544D01*
X143621985Y-57116545D01*
X143692454Y-57222008D01*
X143720536Y-57264035D01*
X143845965Y-57389464D01*
X143993453Y-57488013D01*
X144157334Y-57555894D01*
X144331309Y-57590500D01*
X144331310Y-57590500D01*
X144508690Y-57590500D01*
X144508691Y-57590500D01*
X144682666Y-57555894D01*
X144846547Y-57488013D01*
X144994035Y-57389464D01*
X145119464Y-57264035D01*
X145218013Y-57116547D01*
X145278536Y-56970430D01*
X145318272Y-56923904D01*
X145377767Y-56909620D01*
X145434295Y-56933034D01*
X145461464Y-56970430D01*
X145521985Y-57116544D01*
X145521985Y-57116545D01*
X145592454Y-57222008D01*
X145620536Y-57264035D01*
X145745965Y-57389464D01*
X145893453Y-57488013D01*
X146057334Y-57555894D01*
X146231309Y-57590500D01*
X146231310Y-57590500D01*
X146408690Y-57590500D01*
X146408691Y-57590500D01*
X146582666Y-57555894D01*
X146746547Y-57488013D01*
X146894035Y-57389464D01*
X147019464Y-57264035D01*
X147118013Y-57116547D01*
X147185894Y-56952666D01*
X147220500Y-56778691D01*
X147220500Y-56601309D01*
X147185894Y-56427334D01*
X147118014Y-56263455D01*
X147118014Y-56263454D01*
X147019464Y-56115965D01*
X146894034Y-55990535D01*
X146746544Y-55891985D01*
X146582666Y-55824106D01*
X146408693Y-55789500D01*
X146408691Y-55789500D01*
X146231309Y-55789500D01*
X146231306Y-55789500D01*
X146057334Y-55824106D01*
X146057332Y-55824106D01*
X145893455Y-55891985D01*
X145893454Y-55891985D01*
X145745965Y-55990535D01*
X145620535Y-56115965D01*
X145521985Y-56263454D01*
X145521985Y-56263455D01*
X145461464Y-56409569D01*
X145421728Y-56456095D01*
X145362233Y-56470379D01*
X145305705Y-56446964D01*
X145278536Y-56409569D01*
X145218014Y-56263455D01*
X145218014Y-56263454D01*
X145119464Y-56115965D01*
X144994034Y-55990535D01*
X144846544Y-55891985D01*
X144682666Y-55824106D01*
X144508693Y-55789500D01*
X144508691Y-55789500D01*
X144331309Y-55789500D01*
X144331306Y-55789500D01*
X144157334Y-55824106D01*
X144157332Y-55824106D01*
X143993455Y-55891985D01*
X143993454Y-55891985D01*
X143845965Y-55990535D01*
X143720535Y-56115965D01*
X143621985Y-56263454D01*
X143621985Y-56263455D01*
X143554106Y-56427332D01*
X143554106Y-56427334D01*
X143519500Y-56601306D01*
X139440500Y-56601306D01*
X139440500Y-52507883D01*
X159075670Y-52507883D01*
X159101059Y-52526330D01*
X159101063Y-52526332D01*
X159269364Y-52612085D01*
X159449003Y-52670453D01*
X159635555Y-52700000D01*
X159824445Y-52700000D01*
X160010996Y-52670453D01*
X160190635Y-52612085D01*
X160358939Y-52526329D01*
X160384328Y-52507883D01*
X159729999Y-51853554D01*
X159075670Y-52507883D01*
X139440500Y-52507883D01*
X139440500Y-51411306D01*
X145249500Y-51411306D01*
X145249500Y-51588693D01*
X145284106Y-51762665D01*
X145284106Y-51762667D01*
X145351985Y-51926544D01*
X145351985Y-51926545D01*
X145450535Y-52074034D01*
X145450536Y-52074035D01*
X145575965Y-52199464D01*
X145723453Y-52298013D01*
X145887334Y-52365894D01*
X146061309Y-52400500D01*
X146061310Y-52400500D01*
X146238690Y-52400500D01*
X146238691Y-52400500D01*
X146412666Y-52365894D01*
X146576547Y-52298013D01*
X146724035Y-52199464D01*
X146849464Y-52074035D01*
X146948013Y-51926547D01*
X147008536Y-51780430D01*
X147048272Y-51733904D01*
X147107767Y-51719620D01*
X147164295Y-51743034D01*
X147191464Y-51780430D01*
X147251985Y-51926544D01*
X147251985Y-51926545D01*
X147350535Y-52074034D01*
X147350536Y-52074035D01*
X147475965Y-52199464D01*
X147623453Y-52298013D01*
X147787334Y-52365894D01*
X147961309Y-52400500D01*
X147961310Y-52400500D01*
X148138690Y-52400500D01*
X148138691Y-52400500D01*
X148312666Y-52365894D01*
X148476547Y-52298013D01*
X148624035Y-52199464D01*
X148749464Y-52074035D01*
X148848013Y-51926547D01*
X148915894Y-51762666D01*
X148950500Y-51588691D01*
X148950500Y-51461306D01*
X154339500Y-51461306D01*
X154339500Y-51638693D01*
X154374106Y-51812665D01*
X154374106Y-51812667D01*
X154441985Y-51976544D01*
X154441985Y-51976545D01*
X154540535Y-52124034D01*
X154540536Y-52124035D01*
X154665965Y-52249464D01*
X154813453Y-52348013D01*
X154977334Y-52415894D01*
X155151309Y-52450500D01*
X155151310Y-52450500D01*
X155328690Y-52450500D01*
X155328691Y-52450500D01*
X155502666Y-52415894D01*
X155666547Y-52348013D01*
X155814035Y-52249464D01*
X155939464Y-52124035D01*
X156038013Y-51976547D01*
X156098536Y-51830430D01*
X156138272Y-51783904D01*
X156197767Y-51769620D01*
X156254295Y-51793034D01*
X156281464Y-51830430D01*
X156341985Y-51976544D01*
X156341985Y-51976545D01*
X156440535Y-52124034D01*
X156440536Y-52124035D01*
X156565965Y-52249464D01*
X156713453Y-52348013D01*
X156877334Y-52415894D01*
X157051309Y-52450500D01*
X157051310Y-52450500D01*
X157228690Y-52450500D01*
X157228691Y-52450500D01*
X157402666Y-52415894D01*
X157460024Y-52392135D01*
X157492491Y-52378688D01*
X157535253Y-52360975D01*
X157566547Y-52348013D01*
X157714035Y-52249464D01*
X157839464Y-52124035D01*
X157938013Y-51976547D01*
X158005894Y-51812666D01*
X158040500Y-51638691D01*
X158040500Y-51461309D01*
X158039031Y-51453922D01*
X158032479Y-51420981D01*
X158029410Y-51405554D01*
X158530000Y-51405554D01*
X158530000Y-51594445D01*
X158559546Y-51780996D01*
X158617914Y-51960635D01*
X158703666Y-52128934D01*
X158722115Y-52154328D01*
X159376444Y-51499999D01*
X159330367Y-51453922D01*
X159380000Y-51453922D01*
X159380000Y-51546078D01*
X159403852Y-51635095D01*
X159449930Y-51714905D01*
X159515095Y-51780070D01*
X159594905Y-51826148D01*
X159683922Y-51850000D01*
X159776078Y-51850000D01*
X159865095Y-51826148D01*
X159944905Y-51780070D01*
X160010070Y-51714905D01*
X160056148Y-51635095D01*
X160080000Y-51546078D01*
X160080000Y-51499999D01*
X160083554Y-51499999D01*
X160737883Y-52154328D01*
X160756331Y-52128937D01*
X160771800Y-52098576D01*
X160815063Y-52055310D01*
X160875495Y-52045736D01*
X160930013Y-52073512D01*
X160930535Y-52074034D01*
X160930536Y-52074035D01*
X161055965Y-52199464D01*
X161203453Y-52298013D01*
X161367334Y-52365894D01*
X161541309Y-52400500D01*
X161541310Y-52400500D01*
X161718690Y-52400500D01*
X161718691Y-52400500D01*
X161892666Y-52365894D01*
X162056547Y-52298013D01*
X162204035Y-52199464D01*
X162329464Y-52074035D01*
X162428013Y-51926547D01*
X162495894Y-51762666D01*
X162530500Y-51588691D01*
X162530500Y-51411309D01*
X162530499Y-51411306D01*
X162529206Y-51404806D01*
X164729100Y-51404806D01*
X164729100Y-52895193D01*
X164762182Y-53061513D01*
X164827079Y-53218187D01*
X164827083Y-53218196D01*
X164905556Y-53335638D01*
X164921295Y-53359192D01*
X165041208Y-53479105D01*
X165072354Y-53499916D01*
X165182203Y-53573316D01*
X165182209Y-53573318D01*
X165182211Y-53573320D01*
X165338885Y-53638217D01*
X165505209Y-53671300D01*
X165505211Y-53671300D01*
X165674789Y-53671300D01*
X165674791Y-53671300D01*
X165841115Y-53638217D01*
X165997789Y-53573320D01*
X165997792Y-53573317D01*
X165997796Y-53573316D01*
X166045217Y-53541629D01*
X166138792Y-53479105D01*
X166258705Y-53359192D01*
X166327763Y-53255839D01*
X166352916Y-53218196D01*
X166352917Y-53218192D01*
X166352920Y-53218189D01*
X166417817Y-53061515D01*
X166450900Y-52895191D01*
X166450900Y-51404809D01*
X166450899Y-51404806D01*
X166449599Y-51398271D01*
X166969600Y-51398271D01*
X166969600Y-51899999D01*
X166969601Y-51900000D01*
X167805263Y-51900000D01*
X167804799Y-51900464D01*
X167751295Y-51993135D01*
X167723600Y-52096496D01*
X167723600Y-52203504D01*
X167751295Y-52306865D01*
X167804799Y-52399536D01*
X167805263Y-52400000D01*
X166969601Y-52400000D01*
X166969600Y-52400001D01*
X166969600Y-52901728D01*
X166998171Y-53082123D01*
X167054615Y-53255839D01*
X167137535Y-53418579D01*
X167244896Y-53566348D01*
X167374051Y-53695503D01*
X167521820Y-53802864D01*
X167684560Y-53885784D01*
X167858278Y-53942228D01*
X167858274Y-53942228D01*
X167879999Y-53945668D01*
X167880000Y-53945667D01*
X167880000Y-52474737D01*
X167880464Y-52475201D01*
X167973135Y-52528705D01*
X168076496Y-52556400D01*
X168183504Y-52556400D01*
X168286865Y-52528705D01*
X168379536Y-52475201D01*
X168380000Y-52474737D01*
X168380000Y-53945668D01*
X168401723Y-53942228D01*
X168575439Y-53885784D01*
X168738179Y-53802864D01*
X168822699Y-53741456D01*
X171784500Y-53741456D01*
X171784500Y-53938543D01*
X171822949Y-54131834D01*
X171822949Y-54131836D01*
X171898367Y-54313913D01*
X171898368Y-54313914D01*
X172007861Y-54477782D01*
X172147218Y-54617139D01*
X172269839Y-54699072D01*
X172311084Y-54726631D01*
X172311085Y-54726631D01*
X172311086Y-54726632D01*
X172423387Y-54773147D01*
X172469911Y-54812881D01*
X172484500Y-54864610D01*
X172484500Y-55179564D01*
X172504978Y-55255988D01*
X172504980Y-55255992D01*
X172544538Y-55324508D01*
X172544540Y-55324511D01*
X175955635Y-58735606D01*
X179348004Y-62127975D01*
X179375781Y-62182492D01*
X179369465Y-62235864D01*
X179322948Y-62348168D01*
X179284500Y-62541456D01*
X179284500Y-62738543D01*
X179301824Y-62825635D01*
X179322948Y-62931832D01*
X179322949Y-62931834D01*
X179322949Y-62931836D01*
X179398367Y-63113913D01*
X179435033Y-63168787D01*
X179507861Y-63277782D01*
X179507862Y-63277783D01*
X179507865Y-63277787D01*
X179508618Y-63278705D01*
X179508815Y-63279209D01*
X179510563Y-63281825D01*
X179509988Y-63282208D01*
X179530911Y-63335685D01*
X179515454Y-63394886D01*
X179468152Y-63433695D01*
X179432082Y-63440500D01*
X174051479Y-63440500D01*
X173993288Y-63421593D01*
X173981475Y-63411504D01*
X173721994Y-63152023D01*
X173694217Y-63097506D01*
X173700533Y-63044137D01*
X173747051Y-62931835D01*
X173785500Y-62738541D01*
X173785500Y-62541459D01*
X173747051Y-62348165D01*
X173671632Y-62166086D01*
X173562139Y-62002218D01*
X173422782Y-61862861D01*
X173309371Y-61787082D01*
X173258913Y-61753367D01*
X173076835Y-61677949D01*
X172883543Y-61639500D01*
X172883541Y-61639500D01*
X172686459Y-61639500D01*
X172686456Y-61639500D01*
X172493165Y-61677949D01*
X172493163Y-61677949D01*
X172311086Y-61753367D01*
X172147218Y-61862861D01*
X172147214Y-61862864D01*
X172007864Y-62002214D01*
X172007861Y-62002218D01*
X171898367Y-62166086D01*
X171822949Y-62348163D01*
X171822949Y-62348165D01*
X171784500Y-62541456D01*
X171784500Y-62738543D01*
X171801824Y-62825635D01*
X171822948Y-62931832D01*
X171822949Y-62931834D01*
X171822949Y-62931836D01*
X171898367Y-63113913D01*
X171934699Y-63168288D01*
X172007861Y-63277782D01*
X172147218Y-63417139D01*
X172311086Y-63526632D01*
X172493165Y-63602051D01*
X172686459Y-63640500D01*
X172686460Y-63640500D01*
X172883540Y-63640500D01*
X172883541Y-63640500D01*
X173076835Y-63602051D01*
X173189137Y-63555533D01*
X173250129Y-63550733D01*
X173297023Y-63576994D01*
X173645540Y-63925511D01*
X173645539Y-63925511D01*
X173701489Y-63981460D01*
X173770007Y-64021019D01*
X173770011Y-64021021D01*
X173846435Y-64041499D01*
X173846437Y-64041500D01*
X173846438Y-64041500D01*
X180780613Y-64041500D01*
X180780613Y-64041499D01*
X180857039Y-64021021D01*
X180925561Y-63981460D01*
X180981510Y-63925511D01*
X181626460Y-63280561D01*
X181649589Y-63240500D01*
X181666021Y-63212039D01*
X181686500Y-63135612D01*
X181686500Y-61371359D01*
X182870135Y-61371359D01*
X182870135Y-63179902D01*
X182872988Y-63210331D01*
X182872988Y-63210333D01*
X182872989Y-63210335D01*
X182912878Y-63324332D01*
X182917843Y-63338521D01*
X182998480Y-63447780D01*
X182998489Y-63447789D01*
X183107750Y-63528427D01*
X183107751Y-63528427D01*
X183107752Y-63528428D01*
X183235935Y-63573281D01*
X183266368Y-63576135D01*
X185074901Y-63576134D01*
X185074902Y-63576134D01*
X185080987Y-63575563D01*
X185105335Y-63573281D01*
X185233518Y-63528428D01*
X185233521Y-63528426D01*
X185336396Y-63452501D01*
X185336396Y-63452500D01*
X185336397Y-63452500D01*
X185340642Y-63449366D01*
X185342785Y-63447785D01*
X185423428Y-63338518D01*
X185468281Y-63210335D01*
X185471135Y-63179902D01*
X185471134Y-62149708D01*
X186380635Y-62149708D01*
X186380635Y-62401561D01*
X186420030Y-62650298D01*
X186497856Y-62889822D01*
X186612191Y-63114217D01*
X186612193Y-63114221D01*
X186686381Y-63216332D01*
X187456846Y-62445866D01*
X187468117Y-62487927D01*
X187540525Y-62613343D01*
X187642927Y-62715745D01*
X187768343Y-62788153D01*
X187810400Y-62799422D01*
X187039936Y-63569887D01*
X187142048Y-63644076D01*
X187142052Y-63644078D01*
X187366447Y-63758413D01*
X187605971Y-63836239D01*
X187854709Y-63875635D01*
X188106561Y-63875635D01*
X188355298Y-63836239D01*
X188594822Y-63758413D01*
X188819215Y-63644079D01*
X188921331Y-63569886D01*
X188150867Y-62799422D01*
X188192927Y-62788153D01*
X188318343Y-62715745D01*
X188420745Y-62613343D01*
X188493153Y-62487927D01*
X188504422Y-62445867D01*
X189274886Y-63216331D01*
X189349079Y-63114215D01*
X189463413Y-62889822D01*
X189541239Y-62650298D01*
X189580635Y-62401561D01*
X189580635Y-62149708D01*
X189541239Y-61900971D01*
X189463413Y-61661447D01*
X189349078Y-61437052D01*
X189349076Y-61437048D01*
X189274887Y-61334936D01*
X188504422Y-62105400D01*
X188493153Y-62063343D01*
X188420745Y-61937927D01*
X188318343Y-61835525D01*
X188192927Y-61763117D01*
X188150866Y-61751846D01*
X188921332Y-60981381D01*
X188819221Y-60907193D01*
X188819217Y-60907191D01*
X188594822Y-60792856D01*
X188355298Y-60715030D01*
X188106561Y-60675635D01*
X187854709Y-60675635D01*
X187605971Y-60715030D01*
X187366447Y-60792856D01*
X187142053Y-60907191D01*
X187039936Y-60981381D01*
X187810402Y-61751847D01*
X187768343Y-61763117D01*
X187642927Y-61835525D01*
X187540525Y-61937927D01*
X187468117Y-62063343D01*
X187456847Y-62105402D01*
X186686381Y-61334936D01*
X186612191Y-61437053D01*
X186497856Y-61661447D01*
X186420030Y-61900971D01*
X186380635Y-62149708D01*
X185471134Y-62149708D01*
X185471134Y-61371369D01*
X185468281Y-61340935D01*
X185423428Y-61212752D01*
X185423426Y-61212750D01*
X185423426Y-61212748D01*
X185342789Y-61103489D01*
X185342781Y-61103481D01*
X185336395Y-61098768D01*
X185233519Y-61022842D01*
X185105339Y-60977990D01*
X185105330Y-60977988D01*
X185074909Y-60975135D01*
X183266367Y-60975135D01*
X183235938Y-60977988D01*
X183107748Y-61022843D01*
X182998489Y-61103480D01*
X182998480Y-61103489D01*
X182917842Y-61212750D01*
X182872990Y-61340930D01*
X182872988Y-61340939D01*
X182870135Y-61371359D01*
X181686500Y-61371359D01*
X181686500Y-60404479D01*
X181705407Y-60346288D01*
X181715496Y-60334475D01*
X182830475Y-59219496D01*
X182884992Y-59191719D01*
X182900479Y-59190500D01*
X184039273Y-59190500D01*
X184039273Y-59190499D01*
X184069699Y-59187646D01*
X184197882Y-59142793D01*
X184307150Y-59062150D01*
X184387793Y-58952882D01*
X184432646Y-58824699D01*
X184435499Y-58794273D01*
X184435500Y-58794273D01*
X184435500Y-58087684D01*
X189755000Y-58087684D01*
X189755000Y-58292312D01*
X189787008Y-58494412D01*
X189850243Y-58689027D01*
X189943139Y-58871348D01*
X189943143Y-58871353D01*
X189975523Y-58915920D01*
X189975524Y-58915920D01*
X190655000Y-58236444D01*
X190655000Y-58242661D01*
X190682259Y-58344394D01*
X190734920Y-58435606D01*
X190809394Y-58510080D01*
X190900606Y-58562741D01*
X191002339Y-58590000D01*
X191008553Y-58590000D01*
X190329078Y-59269475D01*
X190373647Y-59301858D01*
X190555972Y-59394756D01*
X190750587Y-59457991D01*
X190952685Y-59490000D01*
X191157315Y-59490000D01*
X191359412Y-59457991D01*
X191554027Y-59394756D01*
X191736342Y-59301863D01*
X191736350Y-59301858D01*
X191780920Y-59269475D01*
X191101445Y-58590000D01*
X191107661Y-58590000D01*
X191209394Y-58562741D01*
X191300606Y-58510080D01*
X191375080Y-58435606D01*
X191427741Y-58344394D01*
X191455000Y-58242661D01*
X191455000Y-58236445D01*
X192134475Y-58915920D01*
X192166858Y-58871350D01*
X192166863Y-58871342D01*
X192259756Y-58689027D01*
X192322991Y-58494412D01*
X192355000Y-58292312D01*
X192355000Y-58087684D01*
X192322991Y-57885587D01*
X192259756Y-57690972D01*
X192166858Y-57508647D01*
X192134475Y-57464078D01*
X191455000Y-58143553D01*
X191455000Y-58137339D01*
X191427741Y-58035606D01*
X191375080Y-57944394D01*
X191300606Y-57869920D01*
X191209394Y-57817259D01*
X191107661Y-57790000D01*
X191101445Y-57790000D01*
X191780920Y-57110524D01*
X191780920Y-57110523D01*
X191736353Y-57078143D01*
X191736348Y-57078139D01*
X191554027Y-56985243D01*
X191359412Y-56922008D01*
X191157315Y-56890000D01*
X190952685Y-56890000D01*
X190750587Y-56922008D01*
X190555972Y-56985243D01*
X190373651Y-57078139D01*
X190373647Y-57078141D01*
X190329078Y-57110523D01*
X191008555Y-57790000D01*
X191002339Y-57790000D01*
X190900606Y-57817259D01*
X190809394Y-57869920D01*
X190734920Y-57944394D01*
X190682259Y-58035606D01*
X190655000Y-58137339D01*
X190655000Y-58143555D01*
X189975523Y-57464078D01*
X189943141Y-57508647D01*
X189943139Y-57508651D01*
X189850243Y-57690972D01*
X189787008Y-57885587D01*
X189755000Y-58087684D01*
X184435500Y-58087684D01*
X184435500Y-57585727D01*
X184435499Y-57585725D01*
X184434443Y-57574465D01*
X184432646Y-57555301D01*
X184387793Y-57427118D01*
X184375546Y-57410524D01*
X184307154Y-57317855D01*
X184307152Y-57317853D01*
X184307150Y-57317850D01*
X184307146Y-57317847D01*
X184307144Y-57317845D01*
X184197886Y-57237209D01*
X184197880Y-57237206D01*
X184069703Y-57192355D01*
X184069694Y-57192353D01*
X184039274Y-57189500D01*
X184039266Y-57189500D01*
X182830734Y-57189500D01*
X182830725Y-57189500D01*
X182800305Y-57192353D01*
X182800296Y-57192355D01*
X182672116Y-57237207D01*
X182562855Y-57317845D01*
X182562845Y-57317855D01*
X182482207Y-57427116D01*
X182437355Y-57555296D01*
X182437353Y-57555305D01*
X182434500Y-57585725D01*
X182434500Y-58724521D01*
X182415593Y-58782712D01*
X182405504Y-58794525D01*
X181201489Y-59998540D01*
X181201488Y-59998539D01*
X181145539Y-60054489D01*
X181105980Y-60123007D01*
X181105978Y-60123011D01*
X181085500Y-60199435D01*
X181085500Y-61787082D01*
X181066593Y-61845273D01*
X181017093Y-61881237D01*
X180955907Y-61881237D01*
X180926941Y-61865388D01*
X180926825Y-61865563D01*
X180924859Y-61864249D01*
X180923705Y-61863618D01*
X180922787Y-61862865D01*
X180922783Y-61862862D01*
X180922782Y-61862861D01*
X180809371Y-61787082D01*
X180758913Y-61753367D01*
X180576835Y-61677949D01*
X180383543Y-61639500D01*
X180383541Y-61639500D01*
X180186459Y-61639500D01*
X180186456Y-61639500D01*
X179993168Y-61677948D01*
X179993166Y-61677948D01*
X179993165Y-61677949D01*
X179932676Y-61703004D01*
X179880864Y-61724465D01*
X179819867Y-61729264D01*
X179772975Y-61703004D01*
X176457655Y-58387684D01*
X178985000Y-58387684D01*
X178985000Y-58592315D01*
X179017008Y-58794412D01*
X179080243Y-58989027D01*
X179173139Y-59171348D01*
X179173143Y-59171353D01*
X179205523Y-59215920D01*
X179205524Y-59215920D01*
X179885000Y-58536444D01*
X179885000Y-58542661D01*
X179912259Y-58644394D01*
X179964920Y-58735606D01*
X180039394Y-58810080D01*
X180130606Y-58862741D01*
X180232339Y-58890000D01*
X180238553Y-58890000D01*
X179559078Y-59569475D01*
X179603647Y-59601858D01*
X179785972Y-59694756D01*
X179980587Y-59757991D01*
X180182685Y-59790000D01*
X180387315Y-59790000D01*
X180589412Y-59757991D01*
X180784027Y-59694756D01*
X180966342Y-59601863D01*
X180966350Y-59601858D01*
X181010920Y-59569475D01*
X180331445Y-58890000D01*
X180337661Y-58890000D01*
X180439394Y-58862741D01*
X180530606Y-58810080D01*
X180605080Y-58735606D01*
X180657741Y-58644394D01*
X180685000Y-58542661D01*
X180685000Y-58536445D01*
X181364475Y-59215920D01*
X181396858Y-59171350D01*
X181396863Y-59171342D01*
X181489756Y-58989027D01*
X181552991Y-58794412D01*
X181585000Y-58592315D01*
X181585000Y-58387684D01*
X181552991Y-58185587D01*
X181489756Y-57990972D01*
X181396858Y-57808647D01*
X181364475Y-57764078D01*
X180685000Y-58443553D01*
X180685000Y-58437339D01*
X180657741Y-58335606D01*
X180605080Y-58244394D01*
X180530606Y-58169920D01*
X180439394Y-58117259D01*
X180337661Y-58090000D01*
X180331445Y-58090000D01*
X181010920Y-57410524D01*
X181010920Y-57410523D01*
X180966353Y-57378143D01*
X180966348Y-57378139D01*
X180784027Y-57285243D01*
X180589412Y-57222008D01*
X180387315Y-57190000D01*
X180182685Y-57190000D01*
X179980587Y-57222008D01*
X179785972Y-57285243D01*
X179603651Y-57378139D01*
X179603647Y-57378141D01*
X179559078Y-57410523D01*
X180238555Y-58090000D01*
X180232339Y-58090000D01*
X180130606Y-58117259D01*
X180039394Y-58169920D01*
X179964920Y-58244394D01*
X179912259Y-58335606D01*
X179885000Y-58437339D01*
X179885000Y-58443555D01*
X179205523Y-57764078D01*
X179173141Y-57808647D01*
X179173139Y-57808651D01*
X179080243Y-57990972D01*
X179017008Y-58185587D01*
X178985000Y-58387684D01*
X176457655Y-58387684D01*
X173114496Y-55044525D01*
X173110869Y-55037407D01*
X173104407Y-55032712D01*
X173097243Y-55010663D01*
X173086719Y-54990008D01*
X173085500Y-54974521D01*
X173085500Y-54864610D01*
X173104407Y-54806419D01*
X173146612Y-54773148D01*
X173258914Y-54726632D01*
X173422782Y-54617139D01*
X173562139Y-54477782D01*
X173671632Y-54313914D01*
X173747051Y-54131835D01*
X173785500Y-53938541D01*
X173785500Y-53741459D01*
X173755372Y-53589999D01*
X181508390Y-53589999D01*
X181508391Y-53590000D01*
X182438590Y-53590000D01*
X182388963Y-53675956D01*
X182360000Y-53784048D01*
X182360000Y-53895952D01*
X182388963Y-54004044D01*
X182438590Y-54090000D01*
X181508390Y-54090000D01*
X181517009Y-54144414D01*
X181580243Y-54339027D01*
X181673138Y-54521346D01*
X181793414Y-54686891D01*
X181938108Y-54831585D01*
X182103653Y-54951861D01*
X182285972Y-55044756D01*
X182480589Y-55107991D01*
X182480585Y-55107991D01*
X182534999Y-55116608D01*
X182535000Y-55116607D01*
X182535000Y-54186409D01*
X182620956Y-54236037D01*
X182729048Y-54265000D01*
X182840952Y-54265000D01*
X182949044Y-54236037D01*
X183035000Y-54186409D01*
X183035000Y-55116608D01*
X183089412Y-55107991D01*
X183284027Y-55044756D01*
X183466346Y-54951861D01*
X183631891Y-54831585D01*
X183776585Y-54686891D01*
X183896861Y-54521346D01*
X183989756Y-54339027D01*
X184052990Y-54144414D01*
X184061609Y-54090000D01*
X183131410Y-54090000D01*
X183181037Y-54004044D01*
X183210000Y-53895952D01*
X183210000Y-53784048D01*
X183181037Y-53675956D01*
X183131410Y-53590000D01*
X184061609Y-53590000D01*
X184061609Y-53589999D01*
X184052990Y-53535585D01*
X183989756Y-53340972D01*
X183896861Y-53158653D01*
X183776585Y-52993108D01*
X183631891Y-52848414D01*
X183466346Y-52728138D01*
X183284027Y-52635243D01*
X183089414Y-52572009D01*
X183035000Y-52563390D01*
X183035000Y-53493590D01*
X182949044Y-53443963D01*
X182840952Y-53415000D01*
X182729048Y-53415000D01*
X182620956Y-53443963D01*
X182535000Y-53493590D01*
X182535000Y-52563391D01*
X182534999Y-52563390D01*
X182480585Y-52572009D01*
X182285972Y-52635243D01*
X182103653Y-52728138D01*
X181938108Y-52848414D01*
X181793414Y-52993108D01*
X181673138Y-53158653D01*
X181580243Y-53340972D01*
X181517009Y-53535585D01*
X181508390Y-53589999D01*
X173755372Y-53589999D01*
X173747051Y-53548165D01*
X173671632Y-53366086D01*
X173562139Y-53202218D01*
X173422782Y-53062861D01*
X173258914Y-52953368D01*
X173258915Y-52953368D01*
X173258913Y-52953367D01*
X173076835Y-52877949D01*
X172883543Y-52839500D01*
X172883541Y-52839500D01*
X172686459Y-52839500D01*
X172686456Y-52839500D01*
X172493165Y-52877949D01*
X172493163Y-52877949D01*
X172311086Y-52953367D01*
X172147218Y-53062861D01*
X172147214Y-53062864D01*
X172007864Y-53202214D01*
X172007861Y-53202218D01*
X171898367Y-53366086D01*
X171822949Y-53548163D01*
X171822949Y-53548165D01*
X171784500Y-53741456D01*
X168822699Y-53741456D01*
X168885948Y-53695503D01*
X168914861Y-53666591D01*
X169015103Y-53566348D01*
X169122464Y-53418579D01*
X169205384Y-53255839D01*
X169261828Y-53082123D01*
X169290400Y-52901728D01*
X169290400Y-52400001D01*
X169290399Y-52400000D01*
X168454737Y-52400000D01*
X168455201Y-52399536D01*
X168508705Y-52306865D01*
X168536400Y-52203504D01*
X168536400Y-52096496D01*
X168508705Y-51993135D01*
X168455201Y-51900464D01*
X168454737Y-51900000D01*
X169290399Y-51900000D01*
X169290400Y-51899999D01*
X169290400Y-51398271D01*
X169261828Y-51217876D01*
X169205384Y-51044160D01*
X169122464Y-50881420D01*
X169015103Y-50733651D01*
X168885948Y-50604496D01*
X168738179Y-50497135D01*
X168575437Y-50414214D01*
X168401727Y-50357773D01*
X168380000Y-50354331D01*
X168380000Y-51825263D01*
X168379536Y-51824799D01*
X168286865Y-51771295D01*
X168183504Y-51743600D01*
X168076496Y-51743600D01*
X167973135Y-51771295D01*
X167880464Y-51824799D01*
X167880000Y-51825263D01*
X167880000Y-50354331D01*
X167879999Y-50354331D01*
X167858273Y-50357773D01*
X167858271Y-50357773D01*
X167684562Y-50414214D01*
X167521820Y-50497135D01*
X167374051Y-50604496D01*
X167244896Y-50733651D01*
X167137535Y-50881420D01*
X167054615Y-51044160D01*
X166998171Y-51217876D01*
X166969600Y-51398271D01*
X166449599Y-51398271D01*
X166423309Y-51266095D01*
X166417817Y-51238485D01*
X166352920Y-51081811D01*
X166352918Y-51081809D01*
X166352916Y-51081803D01*
X166282196Y-50975965D01*
X166258705Y-50940808D01*
X166138792Y-50820895D01*
X166108321Y-50800535D01*
X165997796Y-50726683D01*
X165997787Y-50726679D01*
X165841113Y-50661782D01*
X165674793Y-50628700D01*
X165674791Y-50628700D01*
X165505209Y-50628700D01*
X165505206Y-50628700D01*
X165338886Y-50661782D01*
X165182212Y-50726679D01*
X165182203Y-50726683D01*
X165041209Y-50820894D01*
X164921294Y-50940809D01*
X164827083Y-51081803D01*
X164827079Y-51081812D01*
X164762182Y-51238486D01*
X164729100Y-51404806D01*
X162529206Y-51404806D01*
X162524758Y-51382443D01*
X162495894Y-51237334D01*
X162448724Y-51123454D01*
X162428014Y-51073455D01*
X162428014Y-51073454D01*
X162329464Y-50925965D01*
X162204034Y-50800535D01*
X162056544Y-50701985D01*
X161892666Y-50634106D01*
X161718693Y-50599500D01*
X161718691Y-50599500D01*
X161541309Y-50599500D01*
X161541306Y-50599500D01*
X161367334Y-50634106D01*
X161367332Y-50634106D01*
X161203455Y-50701985D01*
X161203454Y-50701985D01*
X161055965Y-50800535D01*
X160930016Y-50926485D01*
X160875499Y-50954262D01*
X160815067Y-50944691D01*
X160771802Y-50901426D01*
X160771802Y-50901425D01*
X160756334Y-50871067D01*
X160756330Y-50871059D01*
X160737883Y-50845670D01*
X160083554Y-51499999D01*
X160080000Y-51499999D01*
X160080000Y-51453922D01*
X160056148Y-51364905D01*
X160010070Y-51285095D01*
X159944905Y-51219930D01*
X159865095Y-51173852D01*
X159776078Y-51150000D01*
X159683922Y-51150000D01*
X159594905Y-51173852D01*
X159515095Y-51219930D01*
X159449930Y-51285095D01*
X159403852Y-51364905D01*
X159380000Y-51453922D01*
X159330367Y-51453922D01*
X158722115Y-50845670D01*
X158703668Y-50871063D01*
X158617914Y-51039364D01*
X158559546Y-51219003D01*
X158530000Y-51405554D01*
X158029410Y-51405554D01*
X158011615Y-51316095D01*
X158005894Y-51287334D01*
X157938014Y-51123455D01*
X157938014Y-51123454D01*
X157839464Y-50975965D01*
X157714034Y-50850535D01*
X157566544Y-50751985D01*
X157402666Y-50684106D01*
X157228693Y-50649500D01*
X157228691Y-50649500D01*
X157051309Y-50649500D01*
X157051306Y-50649500D01*
X156877334Y-50684106D01*
X156877332Y-50684106D01*
X156713455Y-50751985D01*
X156713454Y-50751985D01*
X156565965Y-50850535D01*
X156440535Y-50975965D01*
X156341985Y-51123454D01*
X156341985Y-51123455D01*
X156281464Y-51269569D01*
X156241728Y-51316095D01*
X156182233Y-51330379D01*
X156125705Y-51306964D01*
X156098536Y-51269569D01*
X156038014Y-51123455D01*
X156038014Y-51123454D01*
X155939464Y-50975965D01*
X155814034Y-50850535D01*
X155666544Y-50751985D01*
X155502666Y-50684106D01*
X155328693Y-50649500D01*
X155328691Y-50649500D01*
X155151309Y-50649500D01*
X155151306Y-50649500D01*
X154977334Y-50684106D01*
X154977332Y-50684106D01*
X154813455Y-50751985D01*
X154813454Y-50751985D01*
X154665965Y-50850535D01*
X154540535Y-50975965D01*
X154441985Y-51123454D01*
X154441985Y-51123455D01*
X154374106Y-51287332D01*
X154374106Y-51287334D01*
X154339500Y-51461306D01*
X148950500Y-51461306D01*
X148950500Y-51411309D01*
X148915894Y-51237334D01*
X148868724Y-51123454D01*
X148848014Y-51073455D01*
X148848014Y-51073454D01*
X148749464Y-50925965D01*
X148624034Y-50800535D01*
X148476544Y-50701985D01*
X148312666Y-50634106D01*
X148276665Y-50626945D01*
X148138693Y-50599500D01*
X148138691Y-50599500D01*
X147961309Y-50599500D01*
X147961306Y-50599500D01*
X147787334Y-50634106D01*
X147787332Y-50634106D01*
X147623455Y-50701985D01*
X147623454Y-50701985D01*
X147475965Y-50800535D01*
X147350535Y-50925965D01*
X147251985Y-51073454D01*
X147251985Y-51073455D01*
X147191464Y-51219569D01*
X147151728Y-51266095D01*
X147092233Y-51280379D01*
X147035705Y-51256964D01*
X147008536Y-51219569D01*
X146948014Y-51073455D01*
X146948014Y-51073454D01*
X146849464Y-50925965D01*
X146724034Y-50800535D01*
X146576544Y-50701985D01*
X146412666Y-50634106D01*
X146238693Y-50599500D01*
X146238691Y-50599500D01*
X146061309Y-50599500D01*
X146061306Y-50599500D01*
X145887334Y-50634106D01*
X145887332Y-50634106D01*
X145723455Y-50701985D01*
X145723454Y-50701985D01*
X145575965Y-50800535D01*
X145450535Y-50925965D01*
X145351985Y-51073454D01*
X145351985Y-51073455D01*
X145284106Y-51237332D01*
X145284106Y-51237334D01*
X145249500Y-51411306D01*
X139440500Y-51411306D01*
X139440500Y-50492115D01*
X159075670Y-50492115D01*
X159729999Y-51146444D01*
X160384328Y-50492115D01*
X160358934Y-50473666D01*
X160190635Y-50387914D01*
X160010996Y-50329546D01*
X159824445Y-50300000D01*
X159635555Y-50300000D01*
X159449003Y-50329546D01*
X159269364Y-50387914D01*
X159101063Y-50473668D01*
X159075670Y-50492115D01*
X139440500Y-50492115D01*
X139440500Y-46431306D01*
X154229500Y-46431306D01*
X154229500Y-46608693D01*
X154264106Y-46782665D01*
X154264106Y-46782667D01*
X154331985Y-46946544D01*
X154331985Y-46946545D01*
X154430535Y-47094034D01*
X154430536Y-47094035D01*
X154555965Y-47219464D01*
X154703453Y-47318013D01*
X154867334Y-47385894D01*
X155041309Y-47420500D01*
X155041310Y-47420500D01*
X155218690Y-47420500D01*
X155218691Y-47420500D01*
X155392666Y-47385894D01*
X155556547Y-47318013D01*
X155704035Y-47219464D01*
X155829464Y-47094035D01*
X155928013Y-46946547D01*
X155988536Y-46800430D01*
X156028272Y-46753904D01*
X156087767Y-46739620D01*
X156144295Y-46763034D01*
X156171464Y-46800430D01*
X156231985Y-46946544D01*
X156231985Y-46946545D01*
X156330535Y-47094034D01*
X156330536Y-47094035D01*
X156455965Y-47219464D01*
X156603453Y-47318013D01*
X156767334Y-47385894D01*
X156941309Y-47420500D01*
X156941310Y-47420500D01*
X157118690Y-47420500D01*
X157118691Y-47420500D01*
X157292666Y-47385894D01*
X157456547Y-47318013D01*
X157604035Y-47219464D01*
X157729464Y-47094035D01*
X157828013Y-46946547D01*
X157895894Y-46782666D01*
X157930500Y-46608691D01*
X157930500Y-46431309D01*
X157895894Y-46257334D01*
X157828014Y-46093455D01*
X157828014Y-46093454D01*
X157729464Y-45945965D01*
X157604034Y-45820535D01*
X157456544Y-45721985D01*
X157292666Y-45654106D01*
X157118693Y-45619500D01*
X157118691Y-45619500D01*
X156941309Y-45619500D01*
X156941306Y-45619500D01*
X156767334Y-45654106D01*
X156767332Y-45654106D01*
X156603455Y-45721985D01*
X156603454Y-45721985D01*
X156455965Y-45820535D01*
X156330535Y-45945965D01*
X156231985Y-46093454D01*
X156231985Y-46093455D01*
X156171464Y-46239569D01*
X156131728Y-46286095D01*
X156072233Y-46300379D01*
X156015705Y-46276964D01*
X155988536Y-46239569D01*
X155928014Y-46093455D01*
X155928014Y-46093454D01*
X155829464Y-45945965D01*
X155704034Y-45820535D01*
X155556544Y-45721985D01*
X155392666Y-45654106D01*
X155218693Y-45619500D01*
X155218691Y-45619500D01*
X155041309Y-45619500D01*
X155041306Y-45619500D01*
X154867334Y-45654106D01*
X154867332Y-45654106D01*
X154703455Y-45721985D01*
X154703454Y-45721985D01*
X154555965Y-45820535D01*
X154430535Y-45945965D01*
X154331985Y-46093454D01*
X154331985Y-46093455D01*
X154264106Y-46257332D01*
X154264106Y-46257334D01*
X154229500Y-46431306D01*
X139440500Y-46431306D01*
X139440500Y-44309500D01*
X139459407Y-44251309D01*
X139508907Y-44215345D01*
X139539500Y-44210500D01*
X196510500Y-44210500D01*
X196568691Y-44229407D01*
G37*
%TD.AperFunction*%
%TD*%
M02*
