M48
; DRILL file {KiCad 9.0.7} date 2026-03-11T18:10:29+0530
; FORMAT={-:-/ absolute / metric / decimal}
; #@! TF.CreationDate,2026-03-11T18:10:29+05:30
; #@! TF.GenerationSoftware,Kicad,Pcbnew,9.0.7
; #@! TF.FileFunction,Plated,1,2,PTH
FMAT,2
METRIC
; #@! TA.AperFunction,Plated,PTH,ViaDrill
T1C0.100
; #@! TA.AperFunction,Plated,PTH,ComponentDrill
T2C0.700
; #@! TA.AperFunction,Plated,PTH,ComponentDrill
T3C0.800
; #@! TA.AperFunction,Plated,PTH,ComponentDrill
T4C0.813
; #@! TA.AperFunction,Plated,PTH,ComponentDrill
T5C0.850
; #@! TA.AperFunction,Plated,PTH,ComponentDrill
T6C1.100
%
G90
G05
T1
X150.36Y-52.056
X155.514Y-69.387
X156.134Y-70.766
X186.76Y-69.32
T2
X144.42Y-56.69
X146.15Y-51.5
X146.32Y-56.69
X148.05Y-51.5
X150.82Y-69.92
X152.72Y-69.92
X155.13Y-46.52
X155.24Y-51.55
X157.03Y-46.52
X157.14Y-51.55
X159.73Y-51.5
X161.63Y-51.5
X183.435Y-66.16
X183.435Y-69.31
X185.335Y-66.16
X185.335Y-69.31
T3
X162.27Y-66.87
X169.77Y-66.87
X172.785Y-58.49
X172.785Y-62.64
X172.785Y-66.79
X180.285Y-58.49
X180.285Y-62.64
X180.285Y-66.79
X183.435Y-58.19
X191.055Y-58.19
T4
X165.59Y-52.15
X165.59Y-59.77
X168.13Y-52.15
X168.13Y-59.77
T5
X172.785Y-53.84
X182.785Y-53.84
T6
X184.171Y-62.276
X187.981Y-62.276
M30
