%TF.GenerationSoftware,KiCad,Pcbnew,9.0.7*%
%TF.CreationDate,2026-03-11T18:21:33+05:30*%
%TF.ProjectId,new,6e65772e-6b69-4636-9164-5f7063625858,rev?*%
%TF.SameCoordinates,Original*%
%TF.FileFunction,Legend,Top*%
%TF.FilePolarity,Positive*%
%FSLAX46Y46*%
G04 Gerber Fmt 4.6, Leading zero omitted, Abs format (unit mm)*
G04 Created by KiCad (PCBNEW 9.0.7) date 2026-03-11 18:21:33*
%MOMM*%
%LPD*%
G01*
G04 APERTURE LIST*
%ADD10C,0.150000*%
%ADD11C,0.002500*%
%ADD12C,0.120000*%
%ADD13C,0.152400*%
%ADD14C,0.000000*%
G04 APERTURE END LIST*
D10*
X177618333Y-51294819D02*
X177142143Y-51294819D01*
X177142143Y-51294819D02*
X177142143Y-50294819D01*
X178475476Y-51294819D02*
X177904048Y-51294819D01*
X178189762Y-51294819D02*
X178189762Y-50294819D01*
X178189762Y-50294819D02*
X178094524Y-50437676D01*
X178094524Y-50437676D02*
X177999286Y-50532914D01*
X177999286Y-50532914D02*
X177904048Y-50580533D01*
D11*
X163290475Y-55445651D02*
X163290475Y-55453746D01*
X163290475Y-55453746D02*
X163290952Y-55454698D01*
X163290952Y-55454698D02*
X163291428Y-55455175D01*
X163291428Y-55455175D02*
X163292380Y-55455651D01*
X163292380Y-55455651D02*
X163294285Y-55455651D01*
X163294285Y-55455651D02*
X163295237Y-55455175D01*
X163295237Y-55455175D02*
X163295714Y-55454698D01*
X163295714Y-55454698D02*
X163296190Y-55453746D01*
X163296190Y-55453746D02*
X163296190Y-55445651D01*
X163305713Y-55445651D02*
X163300951Y-55445651D01*
X163300951Y-55445651D02*
X163300475Y-55450413D01*
X163300475Y-55450413D02*
X163300951Y-55449936D01*
X163300951Y-55449936D02*
X163301904Y-55449460D01*
X163301904Y-55449460D02*
X163304285Y-55449460D01*
X163304285Y-55449460D02*
X163305237Y-55449936D01*
X163305237Y-55449936D02*
X163305713Y-55450413D01*
X163305713Y-55450413D02*
X163306190Y-55451365D01*
X163306190Y-55451365D02*
X163306190Y-55453746D01*
X163306190Y-55453746D02*
X163305713Y-55454698D01*
X163305713Y-55454698D02*
X163305237Y-55455175D01*
X163305237Y-55455175D02*
X163304285Y-55455651D01*
X163304285Y-55455651D02*
X163301904Y-55455651D01*
X163301904Y-55455651D02*
X163300951Y-55455175D01*
X163300951Y-55455175D02*
X163300475Y-55454698D01*
D10*
X186506905Y-56524819D02*
X186506905Y-55524819D01*
X186506905Y-55524819D02*
X186745000Y-55524819D01*
X186745000Y-55524819D02*
X186887857Y-55572438D01*
X186887857Y-55572438D02*
X186983095Y-55667676D01*
X186983095Y-55667676D02*
X187030714Y-55762914D01*
X187030714Y-55762914D02*
X187078333Y-55953390D01*
X187078333Y-55953390D02*
X187078333Y-56096247D01*
X187078333Y-56096247D02*
X187030714Y-56286723D01*
X187030714Y-56286723D02*
X186983095Y-56381961D01*
X186983095Y-56381961D02*
X186887857Y-56477200D01*
X186887857Y-56477200D02*
X186745000Y-56524819D01*
X186745000Y-56524819D02*
X186506905Y-56524819D01*
X188030714Y-56524819D02*
X187459286Y-56524819D01*
X187745000Y-56524819D02*
X187745000Y-55524819D01*
X187745000Y-55524819D02*
X187649762Y-55667676D01*
X187649762Y-55667676D02*
X187554524Y-55762914D01*
X187554524Y-55762914D02*
X187459286Y-55810533D01*
X183173095Y-56844819D02*
X183173095Y-55844819D01*
X183744523Y-56844819D02*
X183315952Y-56273390D01*
X183744523Y-55844819D02*
X183173095Y-56416247D01*
X155913333Y-45054819D02*
X155580000Y-44578628D01*
X155341905Y-45054819D02*
X155341905Y-44054819D01*
X155341905Y-44054819D02*
X155722857Y-44054819D01*
X155722857Y-44054819D02*
X155818095Y-44102438D01*
X155818095Y-44102438D02*
X155865714Y-44150057D01*
X155865714Y-44150057D02*
X155913333Y-44245295D01*
X155913333Y-44245295D02*
X155913333Y-44388152D01*
X155913333Y-44388152D02*
X155865714Y-44483390D01*
X155865714Y-44483390D02*
X155818095Y-44531009D01*
X155818095Y-44531009D02*
X155722857Y-44578628D01*
X155722857Y-44578628D02*
X155341905Y-44578628D01*
X156865714Y-45054819D02*
X156294286Y-45054819D01*
X156580000Y-45054819D02*
X156580000Y-44054819D01*
X156580000Y-44054819D02*
X156484762Y-44197676D01*
X156484762Y-44197676D02*
X156389524Y-44292914D01*
X156389524Y-44292914D02*
X156294286Y-44340533D01*
X176368333Y-56429580D02*
X176320714Y-56477200D01*
X176320714Y-56477200D02*
X176177857Y-56524819D01*
X176177857Y-56524819D02*
X176082619Y-56524819D01*
X176082619Y-56524819D02*
X175939762Y-56477200D01*
X175939762Y-56477200D02*
X175844524Y-56381961D01*
X175844524Y-56381961D02*
X175796905Y-56286723D01*
X175796905Y-56286723D02*
X175749286Y-56096247D01*
X175749286Y-56096247D02*
X175749286Y-55953390D01*
X175749286Y-55953390D02*
X175796905Y-55762914D01*
X175796905Y-55762914D02*
X175844524Y-55667676D01*
X175844524Y-55667676D02*
X175939762Y-55572438D01*
X175939762Y-55572438D02*
X176082619Y-55524819D01*
X176082619Y-55524819D02*
X176177857Y-55524819D01*
X176177857Y-55524819D02*
X176320714Y-55572438D01*
X176320714Y-55572438D02*
X176368333Y-55620057D01*
X176749286Y-55620057D02*
X176796905Y-55572438D01*
X176796905Y-55572438D02*
X176892143Y-55524819D01*
X176892143Y-55524819D02*
X177130238Y-55524819D01*
X177130238Y-55524819D02*
X177225476Y-55572438D01*
X177225476Y-55572438D02*
X177273095Y-55620057D01*
X177273095Y-55620057D02*
X177320714Y-55715295D01*
X177320714Y-55715295D02*
X177320714Y-55810533D01*
X177320714Y-55810533D02*
X177273095Y-55953390D01*
X177273095Y-55953390D02*
X176701667Y-56524819D01*
X176701667Y-56524819D02*
X177320714Y-56524819D01*
X185337540Y-59979819D02*
X185337540Y-58979819D01*
X185337540Y-58979819D02*
X185575635Y-58979819D01*
X185575635Y-58979819D02*
X185718492Y-59027438D01*
X185718492Y-59027438D02*
X185813730Y-59122676D01*
X185813730Y-59122676D02*
X185861349Y-59217914D01*
X185861349Y-59217914D02*
X185908968Y-59408390D01*
X185908968Y-59408390D02*
X185908968Y-59551247D01*
X185908968Y-59551247D02*
X185861349Y-59741723D01*
X185861349Y-59741723D02*
X185813730Y-59836961D01*
X185813730Y-59836961D02*
X185718492Y-59932200D01*
X185718492Y-59932200D02*
X185575635Y-59979819D01*
X185575635Y-59979819D02*
X185337540Y-59979819D01*
X186289921Y-59075057D02*
X186337540Y-59027438D01*
X186337540Y-59027438D02*
X186432778Y-58979819D01*
X186432778Y-58979819D02*
X186670873Y-58979819D01*
X186670873Y-58979819D02*
X186766111Y-59027438D01*
X186766111Y-59027438D02*
X186813730Y-59075057D01*
X186813730Y-59075057D02*
X186861349Y-59170295D01*
X186861349Y-59170295D02*
X186861349Y-59265533D01*
X186861349Y-59265533D02*
X186813730Y-59408390D01*
X186813730Y-59408390D02*
X186242302Y-59979819D01*
X186242302Y-59979819D02*
X186861349Y-59979819D01*
X185942540Y-63544739D02*
X186418730Y-63544739D01*
X185847302Y-63830454D02*
X186180635Y-62830454D01*
X186180635Y-62830454D02*
X186513968Y-63830454D01*
X146933333Y-50034819D02*
X146600000Y-49558628D01*
X146361905Y-50034819D02*
X146361905Y-49034819D01*
X146361905Y-49034819D02*
X146742857Y-49034819D01*
X146742857Y-49034819D02*
X146838095Y-49082438D01*
X146838095Y-49082438D02*
X146885714Y-49130057D01*
X146885714Y-49130057D02*
X146933333Y-49225295D01*
X146933333Y-49225295D02*
X146933333Y-49368152D01*
X146933333Y-49368152D02*
X146885714Y-49463390D01*
X146885714Y-49463390D02*
X146838095Y-49511009D01*
X146838095Y-49511009D02*
X146742857Y-49558628D01*
X146742857Y-49558628D02*
X146361905Y-49558628D01*
X147790476Y-49368152D02*
X147790476Y-50034819D01*
X147552381Y-48987200D02*
X147314286Y-49701485D01*
X147314286Y-49701485D02*
X147933333Y-49701485D01*
X160513333Y-50034819D02*
X160180000Y-49558628D01*
X159941905Y-50034819D02*
X159941905Y-49034819D01*
X159941905Y-49034819D02*
X160322857Y-49034819D01*
X160322857Y-49034819D02*
X160418095Y-49082438D01*
X160418095Y-49082438D02*
X160465714Y-49130057D01*
X160465714Y-49130057D02*
X160513333Y-49225295D01*
X160513333Y-49225295D02*
X160513333Y-49368152D01*
X160513333Y-49368152D02*
X160465714Y-49463390D01*
X160465714Y-49463390D02*
X160418095Y-49511009D01*
X160418095Y-49511009D02*
X160322857Y-49558628D01*
X160322857Y-49558628D02*
X159941905Y-49558628D01*
X161418095Y-49034819D02*
X160941905Y-49034819D01*
X160941905Y-49034819D02*
X160894286Y-49511009D01*
X160894286Y-49511009D02*
X160941905Y-49463390D01*
X160941905Y-49463390D02*
X161037143Y-49415771D01*
X161037143Y-49415771D02*
X161275238Y-49415771D01*
X161275238Y-49415771D02*
X161370476Y-49463390D01*
X161370476Y-49463390D02*
X161418095Y-49511009D01*
X161418095Y-49511009D02*
X161465714Y-49606247D01*
X161465714Y-49606247D02*
X161465714Y-49844342D01*
X161465714Y-49844342D02*
X161418095Y-49939580D01*
X161418095Y-49939580D02*
X161370476Y-49987200D01*
X161370476Y-49987200D02*
X161275238Y-50034819D01*
X161275238Y-50034819D02*
X161037143Y-50034819D01*
X161037143Y-50034819D02*
X160941905Y-49987200D01*
X160941905Y-49987200D02*
X160894286Y-49939580D01*
X156990074Y-69239065D02*
X156990074Y-69876486D01*
X156990074Y-69876486D02*
X157027570Y-69951476D01*
X157027570Y-69951476D02*
X157065065Y-69988972D01*
X157065065Y-69988972D02*
X157140056Y-70026467D01*
X157140056Y-70026467D02*
X157290037Y-70026467D01*
X157290037Y-70026467D02*
X157365028Y-69988972D01*
X157365028Y-69988972D02*
X157402523Y-69951476D01*
X157402523Y-69951476D02*
X157440018Y-69876486D01*
X157440018Y-69876486D02*
X157440018Y-69239065D01*
X157739981Y-69239065D02*
X158227420Y-69239065D01*
X158227420Y-69239065D02*
X157964953Y-69539028D01*
X157964953Y-69539028D02*
X158077439Y-69539028D01*
X158077439Y-69539028D02*
X158152429Y-69576523D01*
X158152429Y-69576523D02*
X158189925Y-69614018D01*
X158189925Y-69614018D02*
X158227420Y-69689009D01*
X158227420Y-69689009D02*
X158227420Y-69876486D01*
X158227420Y-69876486D02*
X158189925Y-69951476D01*
X158189925Y-69951476D02*
X158152429Y-69988972D01*
X158152429Y-69988972D02*
X158077439Y-70026467D01*
X158077439Y-70026467D02*
X157852467Y-70026467D01*
X157852467Y-70026467D02*
X157777476Y-69988972D01*
X157777476Y-69988972D02*
X157739981Y-69951476D01*
X188633095Y-64039819D02*
X188633095Y-64849342D01*
X188633095Y-64849342D02*
X188680714Y-64944580D01*
X188680714Y-64944580D02*
X188728333Y-64992200D01*
X188728333Y-64992200D02*
X188823571Y-65039819D01*
X188823571Y-65039819D02*
X189014047Y-65039819D01*
X189014047Y-65039819D02*
X189109285Y-64992200D01*
X189109285Y-64992200D02*
X189156904Y-64944580D01*
X189156904Y-64944580D02*
X189204523Y-64849342D01*
X189204523Y-64849342D02*
X189204523Y-64039819D01*
X189633095Y-64135057D02*
X189680714Y-64087438D01*
X189680714Y-64087438D02*
X189775952Y-64039819D01*
X189775952Y-64039819D02*
X190014047Y-64039819D01*
X190014047Y-64039819D02*
X190109285Y-64087438D01*
X190109285Y-64087438D02*
X190156904Y-64135057D01*
X190156904Y-64135057D02*
X190204523Y-64230295D01*
X190204523Y-64230295D02*
X190204523Y-64325533D01*
X190204523Y-64325533D02*
X190156904Y-64468390D01*
X190156904Y-64468390D02*
X189585476Y-65039819D01*
X189585476Y-65039819D02*
X190204523Y-65039819D01*
X176368333Y-64729580D02*
X176320714Y-64777200D01*
X176320714Y-64777200D02*
X176177857Y-64824819D01*
X176177857Y-64824819D02*
X176082619Y-64824819D01*
X176082619Y-64824819D02*
X175939762Y-64777200D01*
X175939762Y-64777200D02*
X175844524Y-64681961D01*
X175844524Y-64681961D02*
X175796905Y-64586723D01*
X175796905Y-64586723D02*
X175749286Y-64396247D01*
X175749286Y-64396247D02*
X175749286Y-64253390D01*
X175749286Y-64253390D02*
X175796905Y-64062914D01*
X175796905Y-64062914D02*
X175844524Y-63967676D01*
X175844524Y-63967676D02*
X175939762Y-63872438D01*
X175939762Y-63872438D02*
X176082619Y-63824819D01*
X176082619Y-63824819D02*
X176177857Y-63824819D01*
X176177857Y-63824819D02*
X176320714Y-63872438D01*
X176320714Y-63872438D02*
X176368333Y-63920057D01*
X177225476Y-64158152D02*
X177225476Y-64824819D01*
X176987381Y-63777200D02*
X176749286Y-64491485D01*
X176749286Y-64491485D02*
X177368333Y-64491485D01*
X176368333Y-60579580D02*
X176320714Y-60627200D01*
X176320714Y-60627200D02*
X176177857Y-60674819D01*
X176177857Y-60674819D02*
X176082619Y-60674819D01*
X176082619Y-60674819D02*
X175939762Y-60627200D01*
X175939762Y-60627200D02*
X175844524Y-60531961D01*
X175844524Y-60531961D02*
X175796905Y-60436723D01*
X175796905Y-60436723D02*
X175749286Y-60246247D01*
X175749286Y-60246247D02*
X175749286Y-60103390D01*
X175749286Y-60103390D02*
X175796905Y-59912914D01*
X175796905Y-59912914D02*
X175844524Y-59817676D01*
X175844524Y-59817676D02*
X175939762Y-59722438D01*
X175939762Y-59722438D02*
X176082619Y-59674819D01*
X176082619Y-59674819D02*
X176177857Y-59674819D01*
X176177857Y-59674819D02*
X176320714Y-59722438D01*
X176320714Y-59722438D02*
X176368333Y-59770057D01*
X176701667Y-59674819D02*
X177320714Y-59674819D01*
X177320714Y-59674819D02*
X176987381Y-60055771D01*
X176987381Y-60055771D02*
X177130238Y-60055771D01*
X177130238Y-60055771D02*
X177225476Y-60103390D01*
X177225476Y-60103390D02*
X177273095Y-60151009D01*
X177273095Y-60151009D02*
X177320714Y-60246247D01*
X177320714Y-60246247D02*
X177320714Y-60484342D01*
X177320714Y-60484342D02*
X177273095Y-60579580D01*
X177273095Y-60579580D02*
X177225476Y-60627200D01*
X177225476Y-60627200D02*
X177130238Y-60674819D01*
X177130238Y-60674819D02*
X176844524Y-60674819D01*
X176844524Y-60674819D02*
X176749286Y-60627200D01*
X176749286Y-60627200D02*
X176701667Y-60579580D01*
X145203333Y-55224819D02*
X144870000Y-54748628D01*
X144631905Y-55224819D02*
X144631905Y-54224819D01*
X144631905Y-54224819D02*
X145012857Y-54224819D01*
X145012857Y-54224819D02*
X145108095Y-54272438D01*
X145108095Y-54272438D02*
X145155714Y-54320057D01*
X145155714Y-54320057D02*
X145203333Y-54415295D01*
X145203333Y-54415295D02*
X145203333Y-54558152D01*
X145203333Y-54558152D02*
X145155714Y-54653390D01*
X145155714Y-54653390D02*
X145108095Y-54701009D01*
X145108095Y-54701009D02*
X145012857Y-54748628D01*
X145012857Y-54748628D02*
X144631905Y-54748628D01*
X145584286Y-54320057D02*
X145631905Y-54272438D01*
X145631905Y-54272438D02*
X145727143Y-54224819D01*
X145727143Y-54224819D02*
X145965238Y-54224819D01*
X145965238Y-54224819D02*
X146060476Y-54272438D01*
X146060476Y-54272438D02*
X146108095Y-54320057D01*
X146108095Y-54320057D02*
X146155714Y-54415295D01*
X146155714Y-54415295D02*
X146155714Y-54510533D01*
X146155714Y-54510533D02*
X146108095Y-54653390D01*
X146108095Y-54653390D02*
X145536667Y-55224819D01*
X145536667Y-55224819D02*
X146155714Y-55224819D01*
X184218333Y-67844819D02*
X183885000Y-67368628D01*
X183646905Y-67844819D02*
X183646905Y-66844819D01*
X183646905Y-66844819D02*
X184027857Y-66844819D01*
X184027857Y-66844819D02*
X184123095Y-66892438D01*
X184123095Y-66892438D02*
X184170714Y-66940057D01*
X184170714Y-66940057D02*
X184218333Y-67035295D01*
X184218333Y-67035295D02*
X184218333Y-67178152D01*
X184218333Y-67178152D02*
X184170714Y-67273390D01*
X184170714Y-67273390D02*
X184123095Y-67321009D01*
X184123095Y-67321009D02*
X184027857Y-67368628D01*
X184027857Y-67368628D02*
X183646905Y-67368628D01*
X184789762Y-67273390D02*
X184694524Y-67225771D01*
X184694524Y-67225771D02*
X184646905Y-67178152D01*
X184646905Y-67178152D02*
X184599286Y-67082914D01*
X184599286Y-67082914D02*
X184599286Y-67035295D01*
X184599286Y-67035295D02*
X184646905Y-66940057D01*
X184646905Y-66940057D02*
X184694524Y-66892438D01*
X184694524Y-66892438D02*
X184789762Y-66844819D01*
X184789762Y-66844819D02*
X184980238Y-66844819D01*
X184980238Y-66844819D02*
X185075476Y-66892438D01*
X185075476Y-66892438D02*
X185123095Y-66940057D01*
X185123095Y-66940057D02*
X185170714Y-67035295D01*
X185170714Y-67035295D02*
X185170714Y-67082914D01*
X185170714Y-67082914D02*
X185123095Y-67178152D01*
X185123095Y-67178152D02*
X185075476Y-67225771D01*
X185075476Y-67225771D02*
X184980238Y-67273390D01*
X184980238Y-67273390D02*
X184789762Y-67273390D01*
X184789762Y-67273390D02*
X184694524Y-67321009D01*
X184694524Y-67321009D02*
X184646905Y-67368628D01*
X184646905Y-67368628D02*
X184599286Y-67463866D01*
X184599286Y-67463866D02*
X184599286Y-67654342D01*
X184599286Y-67654342D02*
X184646905Y-67749580D01*
X184646905Y-67749580D02*
X184694524Y-67797200D01*
X184694524Y-67797200D02*
X184789762Y-67844819D01*
X184789762Y-67844819D02*
X184980238Y-67844819D01*
X184980238Y-67844819D02*
X185075476Y-67797200D01*
X185075476Y-67797200D02*
X185123095Y-67749580D01*
X185123095Y-67749580D02*
X185170714Y-67654342D01*
X185170714Y-67654342D02*
X185170714Y-67463866D01*
X185170714Y-67463866D02*
X185123095Y-67368628D01*
X185123095Y-67368628D02*
X185075476Y-67321009D01*
X185075476Y-67321009D02*
X184980238Y-67273390D01*
X151020574Y-50529065D02*
X151020574Y-51166486D01*
X151020574Y-51166486D02*
X151058070Y-51241476D01*
X151058070Y-51241476D02*
X151095565Y-51278972D01*
X151095565Y-51278972D02*
X151170556Y-51316467D01*
X151170556Y-51316467D02*
X151320537Y-51316467D01*
X151320537Y-51316467D02*
X151395528Y-51278972D01*
X151395528Y-51278972D02*
X151433023Y-51241476D01*
X151433023Y-51241476D02*
X151470518Y-51166486D01*
X151470518Y-51166486D02*
X151470518Y-50529065D01*
X152257920Y-51316467D02*
X151807976Y-51316467D01*
X152032948Y-51316467D02*
X152032948Y-50529065D01*
X152032948Y-50529065D02*
X151957957Y-50641551D01*
X151957957Y-50641551D02*
X151882967Y-50716542D01*
X151882967Y-50716542D02*
X151807976Y-50754037D01*
X165853333Y-64809580D02*
X165805714Y-64857200D01*
X165805714Y-64857200D02*
X165662857Y-64904819D01*
X165662857Y-64904819D02*
X165567619Y-64904819D01*
X165567619Y-64904819D02*
X165424762Y-64857200D01*
X165424762Y-64857200D02*
X165329524Y-64761961D01*
X165329524Y-64761961D02*
X165281905Y-64666723D01*
X165281905Y-64666723D02*
X165234286Y-64476247D01*
X165234286Y-64476247D02*
X165234286Y-64333390D01*
X165234286Y-64333390D02*
X165281905Y-64142914D01*
X165281905Y-64142914D02*
X165329524Y-64047676D01*
X165329524Y-64047676D02*
X165424762Y-63952438D01*
X165424762Y-63952438D02*
X165567619Y-63904819D01*
X165567619Y-63904819D02*
X165662857Y-63904819D01*
X165662857Y-63904819D02*
X165805714Y-63952438D01*
X165805714Y-63952438D02*
X165853333Y-64000057D01*
X166805714Y-64904819D02*
X166234286Y-64904819D01*
X166520000Y-64904819D02*
X166520000Y-63904819D01*
X166520000Y-63904819D02*
X166424762Y-64047676D01*
X166424762Y-64047676D02*
X166329524Y-64142914D01*
X166329524Y-64142914D02*
X166234286Y-64190533D01*
X184218333Y-64694819D02*
X183885000Y-64218628D01*
X183646905Y-64694819D02*
X183646905Y-63694819D01*
X183646905Y-63694819D02*
X184027857Y-63694819D01*
X184027857Y-63694819D02*
X184123095Y-63742438D01*
X184123095Y-63742438D02*
X184170714Y-63790057D01*
X184170714Y-63790057D02*
X184218333Y-63885295D01*
X184218333Y-63885295D02*
X184218333Y-64028152D01*
X184218333Y-64028152D02*
X184170714Y-64123390D01*
X184170714Y-64123390D02*
X184123095Y-64171009D01*
X184123095Y-64171009D02*
X184027857Y-64218628D01*
X184027857Y-64218628D02*
X183646905Y-64218628D01*
X184551667Y-63694819D02*
X185218333Y-63694819D01*
X185218333Y-63694819D02*
X184789762Y-64694819D01*
X154060795Y-59724419D02*
X154060795Y-60533942D01*
X154060795Y-60533942D02*
X154108414Y-60629180D01*
X154108414Y-60629180D02*
X154156033Y-60676800D01*
X154156033Y-60676800D02*
X154251271Y-60724419D01*
X154251271Y-60724419D02*
X154441747Y-60724419D01*
X154441747Y-60724419D02*
X154536985Y-60676800D01*
X154536985Y-60676800D02*
X154584604Y-60629180D01*
X154584604Y-60629180D02*
X154632223Y-60533942D01*
X154632223Y-60533942D02*
X154632223Y-59724419D01*
X155536985Y-60057752D02*
X155536985Y-60724419D01*
X155298890Y-59676800D02*
X155060795Y-60391085D01*
X155060795Y-60391085D02*
X155679842Y-60391085D01*
X147634500Y-55118419D02*
X147634500Y-55356514D01*
X147396405Y-55261276D02*
X147634500Y-55356514D01*
X147634500Y-55356514D02*
X147872595Y-55261276D01*
X147491643Y-55546990D02*
X147634500Y-55356514D01*
X147634500Y-55356514D02*
X147777357Y-55546990D01*
X147634500Y-55118419D02*
X147634500Y-55356514D01*
X147396405Y-55261276D02*
X147634500Y-55356514D01*
X147634500Y-55356514D02*
X147872595Y-55261276D01*
X147491643Y-55546990D02*
X147634500Y-55356514D01*
X147634500Y-55356514D02*
X147777357Y-55546990D01*
X156023333Y-50084819D02*
X155690000Y-49608628D01*
X155451905Y-50084819D02*
X155451905Y-49084819D01*
X155451905Y-49084819D02*
X155832857Y-49084819D01*
X155832857Y-49084819D02*
X155928095Y-49132438D01*
X155928095Y-49132438D02*
X155975714Y-49180057D01*
X155975714Y-49180057D02*
X156023333Y-49275295D01*
X156023333Y-49275295D02*
X156023333Y-49418152D01*
X156023333Y-49418152D02*
X155975714Y-49513390D01*
X155975714Y-49513390D02*
X155928095Y-49561009D01*
X155928095Y-49561009D02*
X155832857Y-49608628D01*
X155832857Y-49608628D02*
X155451905Y-49608628D01*
X156356667Y-49084819D02*
X156975714Y-49084819D01*
X156975714Y-49084819D02*
X156642381Y-49465771D01*
X156642381Y-49465771D02*
X156785238Y-49465771D01*
X156785238Y-49465771D02*
X156880476Y-49513390D01*
X156880476Y-49513390D02*
X156928095Y-49561009D01*
X156928095Y-49561009D02*
X156975714Y-49656247D01*
X156975714Y-49656247D02*
X156975714Y-49894342D01*
X156975714Y-49894342D02*
X156928095Y-49989580D01*
X156928095Y-49989580D02*
X156880476Y-50037200D01*
X156880476Y-50037200D02*
X156785238Y-50084819D01*
X156785238Y-50084819D02*
X156499524Y-50084819D01*
X156499524Y-50084819D02*
X156404286Y-50037200D01*
X156404286Y-50037200D02*
X156356667Y-49989580D01*
X151603333Y-68454819D02*
X151270000Y-67978628D01*
X151031905Y-68454819D02*
X151031905Y-67454819D01*
X151031905Y-67454819D02*
X151412857Y-67454819D01*
X151412857Y-67454819D02*
X151508095Y-67502438D01*
X151508095Y-67502438D02*
X151555714Y-67550057D01*
X151555714Y-67550057D02*
X151603333Y-67645295D01*
X151603333Y-67645295D02*
X151603333Y-67788152D01*
X151603333Y-67788152D02*
X151555714Y-67883390D01*
X151555714Y-67883390D02*
X151508095Y-67931009D01*
X151508095Y-67931009D02*
X151412857Y-67978628D01*
X151412857Y-67978628D02*
X151031905Y-67978628D01*
X152460476Y-67454819D02*
X152270000Y-67454819D01*
X152270000Y-67454819D02*
X152174762Y-67502438D01*
X152174762Y-67502438D02*
X152127143Y-67550057D01*
X152127143Y-67550057D02*
X152031905Y-67692914D01*
X152031905Y-67692914D02*
X151984286Y-67883390D01*
X151984286Y-67883390D02*
X151984286Y-68264342D01*
X151984286Y-68264342D02*
X152031905Y-68359580D01*
X152031905Y-68359580D02*
X152079524Y-68407200D01*
X152079524Y-68407200D02*
X152174762Y-68454819D01*
X152174762Y-68454819D02*
X152365238Y-68454819D01*
X152365238Y-68454819D02*
X152460476Y-68407200D01*
X152460476Y-68407200D02*
X152508095Y-68359580D01*
X152508095Y-68359580D02*
X152555714Y-68264342D01*
X152555714Y-68264342D02*
X152555714Y-68026247D01*
X152555714Y-68026247D02*
X152508095Y-67931009D01*
X152508095Y-67931009D02*
X152460476Y-67883390D01*
X152460476Y-67883390D02*
X152365238Y-67835771D01*
X152365238Y-67835771D02*
X152174762Y-67835771D01*
X152174762Y-67835771D02*
X152079524Y-67883390D01*
X152079524Y-67883390D02*
X152031905Y-67931009D01*
X152031905Y-67931009D02*
X151984286Y-68026247D01*
D12*
%TO.C,L1*%
X173785000Y-53840000D02*
X175165000Y-53840000D01*
X175165000Y-51920000D02*
X175165000Y-55760000D01*
X175165000Y-55760000D02*
X180405000Y-55760000D01*
X180405000Y-51920000D02*
X175165000Y-51920000D01*
X180405000Y-55760000D02*
X180405000Y-51920000D01*
X181785000Y-53840000D02*
X180405000Y-53840000D01*
D13*
%TO.C,U5*%
X164320000Y-53039000D02*
X164320000Y-54944000D01*
X164320000Y-58881000D02*
X164320000Y-56976000D01*
X164320000Y-58881000D02*
X169400000Y-58881000D01*
X169400000Y-53039000D02*
X164320000Y-53039000D01*
X169400000Y-53039000D02*
X169400000Y-58881000D01*
X164320000Y-54944000D02*
G75*
G02*
X164320000Y-56976000I0J-1016000D01*
G01*
D12*
%TO.C,D1*%
X184475000Y-58190000D02*
X185125000Y-58190000D01*
X185725000Y-57070000D02*
X185725000Y-59310000D01*
X185845000Y-57070000D02*
X185845000Y-59310000D01*
X185965000Y-57070000D02*
X185965000Y-59310000D01*
X190015000Y-58190000D02*
X189365000Y-58190000D01*
X185125000Y-57070000D02*
X189365000Y-57070000D01*
X189365000Y-59310000D01*
X185125000Y-59310000D01*
X185125000Y-57070000D01*
%TO.C,R1*%
X155547133Y-47340000D02*
G75*
G02*
X155547133Y-45700000I-417133J820000D01*
G01*
%TO.C,C2*%
X173825000Y-58490000D02*
X174515000Y-58490000D01*
X179245000Y-58490000D02*
X178555000Y-58490000D01*
X174515000Y-57070000D02*
X178555000Y-57070000D01*
X178555000Y-59910000D01*
X174515000Y-59910000D01*
X174515000Y-57070000D01*
%TO.C,D2*%
X185921270Y-62275635D02*
X186580635Y-62275635D01*
X185921270Y-62275635D02*
G75*
G02*
X182420000Y-62275635I-1750635J0D01*
G01*
X182420000Y-62275635D02*
G75*
G02*
X185921270Y-62275635I1750635J0D01*
G01*
%TO.C,R4*%
X146567133Y-52320000D02*
G75*
G02*
X146567133Y-50680000I-417133J820000D01*
G01*
%TO.C,R5*%
X160147133Y-52320000D02*
G75*
G02*
X160147133Y-50680000I-417133J820000D01*
G01*
D13*
%TO.C,U3*%
X155913600Y-67993600D02*
X155913600Y-68425400D01*
X155913600Y-70914600D02*
X155913600Y-71346400D01*
X155913600Y-71346400D02*
X159266400Y-71346400D01*
X159266400Y-67993600D02*
X155913600Y-67993600D01*
X159266400Y-68425400D02*
X159266400Y-67993600D01*
X159266400Y-71346400D02*
X159266400Y-70914600D01*
D12*
%TO.C,U2*%
X188485000Y-65425000D02*
X190305000Y-65425000D01*
X188485000Y-65475000D02*
X188485000Y-65425000D01*
X188485000Y-68545000D02*
X188485000Y-68495000D01*
X190305000Y-65425000D02*
X190305000Y-65475000D01*
X190305000Y-68495000D02*
X190305000Y-68545000D01*
X190305000Y-68545000D02*
X188485000Y-68545000D01*
X187945000Y-65475000D02*
X187705000Y-65145000D01*
X188185000Y-65145000D01*
X187945000Y-65475000D01*
G36*
X187945000Y-65475000D02*
G01*
X187705000Y-65145000D01*
X188185000Y-65145000D01*
X187945000Y-65475000D01*
G37*
%TO.C,C4*%
X173825000Y-66790000D02*
X174515000Y-66790000D01*
X179245000Y-66790000D02*
X178555000Y-66790000D01*
X174515000Y-65370000D02*
X178555000Y-65370000D01*
X178555000Y-68210000D01*
X174515000Y-68210000D01*
X174515000Y-65370000D01*
%TO.C,C3*%
X173825000Y-62640000D02*
X174515000Y-62640000D01*
X179245000Y-62640000D02*
X178555000Y-62640000D01*
X174515000Y-61220000D02*
X178555000Y-61220000D01*
X178555000Y-64060000D01*
X174515000Y-64060000D01*
X174515000Y-61220000D01*
%TO.C,R2*%
X144837133Y-57510000D02*
G75*
G02*
X144837133Y-55870000I-417133J820000D01*
G01*
%TO.C,R8*%
X183852133Y-70130000D02*
G75*
G02*
X183852133Y-68490000I-417133J820000D01*
G01*
D13*
%TO.C,U1*%
X149944100Y-49283600D02*
X149944100Y-49715400D01*
X149944100Y-52204600D02*
X149944100Y-52636400D01*
X149944100Y-52636400D02*
X153296900Y-52636400D01*
X153296900Y-49283600D02*
X149944100Y-49283600D01*
X153296900Y-49715400D02*
X153296900Y-49283600D01*
X153296900Y-52636400D02*
X153296900Y-52204600D01*
D12*
%TO.C,C1*%
X163310000Y-66870000D02*
X164000000Y-66870000D01*
X168730000Y-66870000D02*
X168040000Y-66870000D01*
X164000000Y-65450000D02*
X168040000Y-65450000D01*
X168040000Y-68290000D01*
X164000000Y-68290000D01*
X164000000Y-65450000D01*
%TO.C,R7*%
X183852133Y-66980000D02*
G75*
G02*
X183852133Y-65340000I-417133J820000D01*
G01*
D13*
%TO.C,U4*%
X149691900Y-55138800D02*
X149691900Y-55820960D01*
X149691900Y-64718240D02*
X149691900Y-65400400D01*
X149691900Y-65400400D02*
X150374060Y-65400400D01*
X150374060Y-55138800D02*
X149691900Y-55138800D01*
X159271340Y-65400400D02*
X159953500Y-65400400D01*
X159953500Y-55138800D02*
X159271340Y-55138800D01*
X159953500Y-55820960D02*
X159953500Y-55138800D01*
X159953500Y-65400400D02*
X159953500Y-64718240D01*
D14*
G36*
X148015500Y-62410101D02*
G01*
X147761500Y-62410101D01*
X147761500Y-62029101D01*
X148015500Y-62029101D01*
X148015500Y-62410101D01*
G37*
G36*
X152413200Y-53462400D02*
G01*
X152032200Y-53462400D01*
X152032200Y-53208400D01*
X152413200Y-53208400D01*
X152413200Y-53462400D01*
G37*
G36*
X155013200Y-67330800D02*
G01*
X154632200Y-67330800D01*
X154632200Y-67076800D01*
X155013200Y-67076800D01*
X155013200Y-67330800D01*
G37*
G36*
X158913200Y-53462400D02*
G01*
X158532200Y-53462400D01*
X158532200Y-53208400D01*
X158913200Y-53208400D01*
X158913200Y-53462400D01*
G37*
G36*
X161883900Y-62410101D02*
G01*
X161629900Y-62410101D01*
X161629900Y-62029101D01*
X161883900Y-62029101D01*
X161883900Y-62410101D01*
G37*
D12*
%TO.C,R3*%
X155657133Y-52370000D02*
G75*
G02*
X155657133Y-50730000I-417133J820000D01*
G01*
%TO.C,R6*%
X151237133Y-70740000D02*
G75*
G02*
X151237133Y-69100000I-417133J820000D01*
G01*
%TD*%
M02*
